<svg width="842" height="341" viewBox="0 0 842 341" fill="none" xmlns="http://www.w3.org/2000/svg">
<rect width="842" height="341" fill="white"/>
<g filter="url(#filter0_d_10_260)">
<rect x="47" y="148" width="157" height="55" rx="10" fill="#7A7A7A"/>
<rect x="47.5" y="148.5" width="156" height="54" rx="9.5" stroke="black"/>
</g>
<path d="M109.754 181.113V171.492H113.434V184.172H109.988L109.754 181.113ZM110.141 178.523L111.148 178.5C111.148 179.352 111.047 180.137 110.844 180.855C110.648 181.574 110.352 182.199 109.953 182.73C109.562 183.262 109.074 183.676 108.488 183.973C107.91 184.262 107.234 184.406 106.461 184.406C105.836 184.406 105.262 184.32 104.738 184.148C104.223 183.969 103.777 183.691 103.402 183.316C103.027 182.934 102.738 182.445 102.535 181.852C102.332 181.25 102.23 180.531 102.23 179.695V171.492H105.887V179.719C105.887 180.047 105.926 180.328 106.004 180.562C106.09 180.789 106.203 180.977 106.344 181.125C106.492 181.273 106.672 181.383 106.883 181.453C107.102 181.523 107.34 181.559 107.598 181.559C108.246 181.559 108.754 181.426 109.121 181.16C109.496 180.887 109.758 180.523 109.906 180.07C110.062 179.609 110.141 179.094 110.141 178.523ZM122.562 180.645C122.562 180.41 122.488 180.203 122.34 180.023C122.199 179.844 121.941 179.68 121.566 179.531C121.199 179.383 120.68 179.234 120.008 179.086C119.375 178.953 118.785 178.781 118.238 178.57C117.691 178.352 117.215 178.09 116.809 177.785C116.402 177.473 116.086 177.105 115.859 176.684C115.633 176.254 115.52 175.766 115.52 175.219C115.52 174.688 115.633 174.184 115.859 173.707C116.094 173.23 116.43 172.809 116.867 172.441C117.312 172.074 117.852 171.785 118.484 171.574C119.125 171.363 119.852 171.258 120.664 171.258C121.781 171.258 122.746 171.434 123.559 171.785C124.371 172.129 124.996 172.613 125.434 173.238C125.871 173.855 126.09 174.562 126.09 175.359H122.434C122.434 175.031 122.371 174.746 122.246 174.504C122.121 174.262 121.93 174.074 121.672 173.941C121.414 173.801 121.074 173.73 120.652 173.73C120.324 173.73 120.035 173.789 119.785 173.906C119.543 174.016 119.352 174.168 119.211 174.363C119.078 174.559 119.012 174.785 119.012 175.043C119.012 175.223 119.051 175.387 119.129 175.535C119.215 175.676 119.344 175.809 119.516 175.934C119.695 176.051 119.926 176.156 120.207 176.25C120.496 176.344 120.848 176.434 121.262 176.52C122.145 176.684 122.949 176.914 123.676 177.211C124.41 177.508 124.996 177.918 125.434 178.441C125.879 178.965 126.102 179.656 126.102 180.516C126.102 181.078 125.973 181.594 125.715 182.062C125.465 182.531 125.102 182.941 124.625 183.293C124.148 183.645 123.578 183.918 122.914 184.113C122.25 184.309 121.5 184.406 120.664 184.406C119.469 184.406 118.457 184.191 117.629 183.762C116.801 183.332 116.176 182.793 115.754 182.145C115.34 181.488 115.133 180.816 115.133 180.129H118.566C118.582 180.551 118.688 180.895 118.883 181.16C119.086 181.426 119.348 181.621 119.668 181.746C119.988 181.863 120.348 181.922 120.746 181.922C121.145 181.922 121.477 181.867 121.742 181.758C122.008 181.648 122.211 181.5 122.352 181.312C122.492 181.117 122.562 180.895 122.562 180.645ZM134.117 184.406C133.109 184.406 132.207 184.246 131.41 183.926C130.613 183.605 129.938 183.164 129.383 182.602C128.836 182.031 128.418 181.375 128.129 180.633C127.84 179.891 127.695 179.098 127.695 178.254V177.809C127.695 176.863 127.828 175.992 128.094 175.195C128.359 174.398 128.746 173.707 129.254 173.121C129.77 172.527 130.402 172.07 131.152 171.75C131.902 171.422 132.758 171.258 133.719 171.258C134.617 171.258 135.418 171.406 136.121 171.703C136.824 171.992 137.418 172.41 137.902 172.957C138.387 173.496 138.754 174.148 139.004 174.914C139.262 175.672 139.391 176.523 139.391 177.469V178.969H129.172V176.613H135.805V176.332C135.805 175.887 135.723 175.496 135.559 175.16C135.402 174.824 135.168 174.566 134.855 174.387C134.551 174.199 134.164 174.105 133.695 174.105C133.25 174.105 132.879 174.199 132.582 174.387C132.285 174.574 132.047 174.84 131.867 175.184C131.695 175.52 131.57 175.914 131.492 176.367C131.414 176.812 131.375 177.293 131.375 177.809V178.254C131.375 178.746 131.441 179.195 131.574 179.602C131.707 180.008 131.902 180.355 132.16 180.645C132.418 180.934 132.73 181.16 133.098 181.324C133.465 181.488 133.883 181.57 134.352 181.57C134.93 181.57 135.48 181.461 136.004 181.242C136.527 181.016 136.98 180.664 137.363 180.188L139.074 182.145C138.816 182.52 138.453 182.883 137.984 183.234C137.523 183.578 136.969 183.859 136.32 184.078C135.672 184.297 134.938 184.406 134.117 184.406ZM144.84 174.445V184.172H141.184V171.492H144.617L144.84 174.445ZM148.625 171.398L148.566 174.809C148.41 174.785 148.207 174.766 147.957 174.75C147.707 174.727 147.492 174.715 147.312 174.715C146.844 174.715 146.438 174.773 146.094 174.891C145.758 175 145.477 175.164 145.25 175.383C145.031 175.602 144.867 175.875 144.758 176.203C144.648 176.523 144.594 176.895 144.594 177.316L143.902 176.977C143.902 176.141 143.984 175.375 144.148 174.68C144.312 173.984 144.551 173.383 144.863 172.875C145.176 172.359 145.559 171.961 146.012 171.68C146.465 171.398 146.98 171.258 147.559 171.258C147.746 171.258 147.938 171.27 148.133 171.293C148.328 171.316 148.492 171.352 148.625 171.398Z" fill="white"/>
<g filter="url(#filter1_d_10_260)">
<rect x="329" y="148" width="157" height="55" rx="10" fill="#566384"/>
<rect x="329.5" y="148.5" width="156" height="54" rx="9.5" stroke="black"/>
</g>
<path d="M378.172 166.172V184.172H374.504V166.172H378.172ZM386.785 184.406C385.777 184.406 384.875 184.246 384.078 183.926C383.281 183.605 382.605 183.164 382.051 182.602C381.504 182.031 381.086 181.375 380.797 180.633C380.508 179.891 380.363 179.098 380.363 178.254V177.809C380.363 176.863 380.496 175.992 380.762 175.195C381.027 174.398 381.414 173.707 381.922 173.121C382.438 172.527 383.07 172.07 383.82 171.75C384.57 171.422 385.426 171.258 386.387 171.258C387.285 171.258 388.086 171.406 388.789 171.703C389.492 171.992 390.086 172.41 390.57 172.957C391.055 173.496 391.422 174.148 391.672 174.914C391.93 175.672 392.059 176.523 392.059 177.469V178.969H381.84V176.613H388.473V176.332C388.473 175.887 388.391 175.496 388.227 175.16C388.07 174.824 387.836 174.566 387.523 174.387C387.219 174.199 386.832 174.105 386.363 174.105C385.918 174.105 385.547 174.199 385.25 174.387C384.953 174.574 384.715 174.84 384.535 175.184C384.363 175.52 384.238 175.914 384.16 176.367C384.082 176.812 384.043 177.293 384.043 177.809V178.254C384.043 178.746 384.109 179.195 384.242 179.602C384.375 180.008 384.57 180.355 384.828 180.645C385.086 180.934 385.398 181.16 385.766 181.324C386.133 181.488 386.551 181.57 387.02 181.57C387.598 181.57 388.148 181.461 388.672 181.242C389.195 181.016 389.648 180.664 390.031 180.188L391.742 182.145C391.484 182.52 391.121 182.883 390.652 183.234C390.191 183.578 389.637 183.859 388.988 184.078C388.34 184.297 387.605 184.406 386.785 184.406ZM400.555 181.148V175.711C400.555 175.328 400.496 175 400.379 174.727C400.262 174.453 400.078 174.238 399.828 174.082C399.578 173.926 399.254 173.848 398.855 173.848C398.52 173.848 398.227 173.906 397.977 174.023C397.734 174.141 397.547 174.309 397.414 174.527C397.289 174.746 397.227 175.016 397.227 175.336H393.57C393.57 174.766 393.699 174.234 393.957 173.742C394.215 173.25 394.582 172.816 395.059 172.441C395.543 172.066 396.121 171.777 396.793 171.574C397.465 171.363 398.219 171.258 399.055 171.258C400.047 171.258 400.93 171.426 401.703 171.762C402.484 172.09 403.102 172.586 403.555 173.25C404.008 173.906 404.234 174.734 404.234 175.734V181.043C404.234 181.809 404.277 182.41 404.363 182.848C404.457 183.277 404.59 183.652 404.762 183.973V184.172H401.07C400.898 183.805 400.77 183.352 400.684 182.812C400.598 182.266 400.555 181.711 400.555 181.148ZM401.012 176.438L401.035 178.453H399.219C398.812 178.453 398.461 178.504 398.164 178.605C397.875 178.707 397.641 178.848 397.461 179.027C397.281 179.199 397.148 179.402 397.062 179.637C396.984 179.863 396.945 180.113 396.945 180.387C396.945 180.645 397.008 180.879 397.133 181.09C397.258 181.293 397.43 181.453 397.648 181.57C397.867 181.688 398.121 181.746 398.41 181.746C398.887 181.746 399.293 181.652 399.629 181.465C399.973 181.277 400.238 181.051 400.426 180.785C400.613 180.512 400.707 180.258 400.707 180.023L401.586 181.547C401.445 181.859 401.273 182.184 401.07 182.52C400.867 182.848 400.609 183.156 400.297 183.445C399.984 183.727 399.605 183.957 399.16 184.137C398.723 184.316 398.195 184.406 397.578 184.406C396.781 184.406 396.059 184.246 395.41 183.926C394.762 183.598 394.242 183.148 393.852 182.578C393.469 182.008 393.277 181.352 393.277 180.609C393.277 179.945 393.398 179.355 393.641 178.84C393.883 178.324 394.246 177.887 394.73 177.527C395.223 177.168 395.84 176.898 396.582 176.719C397.324 176.531 398.191 176.438 399.184 176.438H401.012ZM414.02 181.336V166.172H417.699V184.172H414.395L414.02 181.336ZM406.121 177.984V177.738C406.121 176.777 406.227 175.902 406.438 175.113C406.656 174.316 406.973 173.633 407.387 173.062C407.809 172.484 408.328 172.039 408.945 171.727C409.562 171.414 410.27 171.258 411.066 171.258C411.801 171.258 412.441 171.422 412.988 171.75C413.535 172.07 414 172.523 414.383 173.109C414.773 173.688 415.09 174.371 415.332 175.16C415.574 175.941 415.758 176.789 415.883 177.703V178.125C415.766 179 415.582 179.816 415.332 180.574C415.09 181.332 414.773 182 414.383 182.578C414 183.148 413.531 183.598 412.977 183.926C412.43 184.246 411.785 184.406 411.043 184.406C410.246 184.406 409.539 184.246 408.922 183.926C408.312 183.605 407.801 183.156 407.387 182.578C406.973 182 406.656 181.32 406.438 180.539C406.227 179.758 406.121 178.906 406.121 177.984ZM409.777 177.738V177.984C409.777 178.484 409.812 178.949 409.883 179.379C409.961 179.809 410.086 180.188 410.258 180.516C410.43 180.844 410.656 181.102 410.938 181.289C411.219 181.469 411.562 181.559 411.969 181.559C412.516 181.559 412.965 181.434 413.316 181.184C413.668 180.926 413.934 180.57 414.113 180.117C414.293 179.664 414.387 179.137 414.395 178.535V177.305C414.395 176.805 414.344 176.355 414.242 175.957C414.141 175.559 413.988 175.223 413.785 174.949C413.59 174.676 413.344 174.469 413.047 174.328C412.75 174.18 412.398 174.105 411.992 174.105C411.594 174.105 411.254 174.199 410.973 174.387C410.691 174.566 410.461 174.82 410.281 175.148C410.109 175.477 409.98 175.863 409.895 176.309C409.816 176.746 409.777 177.223 409.777 177.738ZM426.113 184.406C425.105 184.406 424.203 184.246 423.406 183.926C422.609 183.605 421.934 183.164 421.379 182.602C420.832 182.031 420.414 181.375 420.125 180.633C419.836 179.891 419.691 179.098 419.691 178.254V177.809C419.691 176.863 419.824 175.992 420.09 175.195C420.355 174.398 420.742 173.707 421.25 173.121C421.766 172.527 422.398 172.07 423.148 171.75C423.898 171.422 424.754 171.258 425.715 171.258C426.613 171.258 427.414 171.406 428.117 171.703C428.82 171.992 429.414 172.41 429.898 172.957C430.383 173.496 430.75 174.148 431 174.914C431.258 175.672 431.387 176.523 431.387 177.469V178.969H421.168V176.613H427.801V176.332C427.801 175.887 427.719 175.496 427.555 175.16C427.398 174.824 427.164 174.566 426.852 174.387C426.547 174.199 426.16 174.105 425.691 174.105C425.246 174.105 424.875 174.199 424.578 174.387C424.281 174.574 424.043 174.84 423.863 175.184C423.691 175.52 423.566 175.914 423.488 176.367C423.41 176.812 423.371 177.293 423.371 177.809V178.254C423.371 178.746 423.438 179.195 423.57 179.602C423.703 180.008 423.898 180.355 424.156 180.645C424.414 180.934 424.727 181.16 425.094 181.324C425.461 181.488 425.879 181.57 426.348 181.57C426.926 181.57 427.477 181.461 428 181.242C428.523 181.016 428.977 180.664 429.359 180.188L431.07 182.145C430.812 182.52 430.449 182.883 429.98 183.234C429.52 183.578 428.965 183.859 428.316 184.078C427.668 184.297 426.934 184.406 426.113 184.406ZM436.836 174.445V184.172H433.18V171.492H436.613L436.836 174.445ZM440.621 171.398L440.562 174.809C440.406 174.785 440.203 174.766 439.953 174.75C439.703 174.727 439.488 174.715 439.309 174.715C438.84 174.715 438.434 174.773 438.09 174.891C437.754 175 437.473 175.164 437.246 175.383C437.027 175.602 436.863 175.875 436.754 176.203C436.645 176.523 436.59 176.895 436.59 177.316L435.898 176.977C435.898 176.141 435.98 175.375 436.145 174.68C436.309 173.984 436.547 173.383 436.859 172.875C437.172 172.359 437.555 171.961 438.008 171.68C438.461 171.398 438.977 171.258 439.555 171.258C439.742 171.258 439.934 171.27 440.129 171.293C440.324 171.316 440.488 171.352 440.621 171.398Z" fill="white"/>
<g filter="url(#filter2_d_10_260)">
<rect x="604" y="225" width="157" height="55" rx="10" fill="#8094C8"/>
<rect x="604.5" y="225.5" width="156" height="54" rx="9.5" stroke="black"/>
</g>
<path d="M646.18 261H642.5V247.242C642.5 246.266 642.691 245.445 643.074 244.781C643.465 244.117 644.016 243.613 644.727 243.27C645.438 242.926 646.277 242.754 647.246 242.754C647.582 242.754 647.895 242.777 648.184 242.824C648.48 242.863 648.77 242.918 649.051 242.988V245.719C648.902 245.68 648.75 245.652 648.594 245.637C648.438 245.621 648.25 245.613 648.031 245.613C647.641 245.613 647.305 245.676 647.023 245.801C646.75 245.918 646.539 246.102 646.391 246.352C646.25 246.594 646.18 246.891 646.18 247.242V261ZM648.688 248.32V250.887H640.648V248.32H648.688ZM649.742 254.789V254.543C649.742 253.613 649.875 252.758 650.141 251.977C650.406 251.188 650.797 250.504 651.312 249.926C651.828 249.348 652.461 248.898 653.211 248.578C653.961 248.25 654.82 248.086 655.789 248.086C656.773 248.086 657.641 248.25 658.391 248.578C659.148 248.898 659.785 249.348 660.301 249.926C660.816 250.504 661.207 251.188 661.473 251.977C661.738 252.758 661.871 253.613 661.871 254.543V254.789C661.871 255.711 661.738 256.566 661.473 257.355C661.207 258.137 660.816 258.82 660.301 259.406C659.785 259.984 659.152 260.434 658.402 260.754C657.652 261.074 656.789 261.234 655.812 261.234C654.844 261.234 653.98 261.074 653.223 260.754C652.465 260.434 651.828 259.984 651.312 259.406C650.797 258.82 650.406 258.137 650.141 257.355C649.875 256.566 649.742 255.711 649.742 254.789ZM653.41 254.543V254.789C653.41 255.289 653.449 255.758 653.527 256.195C653.613 256.633 653.75 257.016 653.938 257.344C654.125 257.672 654.371 257.93 654.676 258.117C654.988 258.297 655.367 258.387 655.812 258.387C656.258 258.387 656.633 258.297 656.938 258.117C657.242 257.93 657.488 257.672 657.676 257.344C657.863 257.016 657.996 256.633 658.074 256.195C658.16 255.758 658.203 255.289 658.203 254.789V254.543C658.203 254.051 658.16 253.59 658.074 253.16C657.996 252.723 657.863 252.336 657.676 252C657.488 251.664 657.238 251.402 656.926 251.215C656.621 251.027 656.242 250.934 655.789 250.934C655.352 250.934 654.98 251.027 654.676 251.215C654.371 251.402 654.125 251.664 653.938 252C653.75 252.336 653.613 252.723 653.527 253.16C653.449 253.59 653.41 254.051 653.41 254.543ZM667.648 243V261H663.98V243H667.648ZM674.141 243V261H670.473V243H674.141ZM676.25 254.789V254.543C676.25 253.613 676.383 252.758 676.648 251.977C676.914 251.188 677.305 250.504 677.82 249.926C678.336 249.348 678.969 248.898 679.719 248.578C680.469 248.25 681.328 248.086 682.297 248.086C683.281 248.086 684.148 248.25 684.898 248.578C685.656 248.898 686.293 249.348 686.809 249.926C687.324 250.504 687.715 251.188 687.98 251.977C688.246 252.758 688.379 253.613 688.379 254.543V254.789C688.379 255.711 688.246 256.566 687.98 257.355C687.715 258.137 687.324 258.82 686.809 259.406C686.293 259.984 685.66 260.434 684.91 260.754C684.16 261.074 683.297 261.234 682.32 261.234C681.352 261.234 680.488 261.074 679.73 260.754C678.973 260.434 678.336 259.984 677.82 259.406C677.305 258.82 676.914 258.137 676.648 257.355C676.383 256.566 676.25 255.711 676.25 254.789ZM679.918 254.543V254.789C679.918 255.289 679.957 255.758 680.035 256.195C680.121 256.633 680.258 257.016 680.445 257.344C680.633 257.672 680.879 257.93 681.184 258.117C681.496 258.297 681.875 258.387 682.32 258.387C682.766 258.387 683.141 258.297 683.445 258.117C683.75 257.93 683.996 257.672 684.184 257.344C684.371 257.016 684.504 256.633 684.582 256.195C684.668 255.758 684.711 255.289 684.711 254.789V254.543C684.711 254.051 684.668 253.59 684.582 253.16C684.504 252.723 684.371 252.336 684.184 252C683.996 251.664 683.746 251.402 683.434 251.215C683.129 251.027 682.75 250.934 682.297 250.934C681.859 250.934 681.488 251.027 681.184 251.215C680.879 251.402 680.633 251.664 680.445 252C680.258 252.336 680.121 252.723 680.035 253.16C679.957 253.59 679.918 254.051 679.918 254.543ZM694.039 257.473L696.523 248.32H698.832L698.047 252.398L695.562 261H693.676L694.039 257.473ZM692.902 248.32L694.566 257.438L694.742 261H692.492L689.375 248.32H692.902ZM701.082 257.262L702.734 248.32H706.262L703.168 261H700.918L701.082 257.262ZM699.113 248.32L701.621 257.426L701.984 261H700.074L697.613 252.41L696.863 248.32H699.113ZM713.809 261.234C712.801 261.234 711.898 261.074 711.102 260.754C710.305 260.434 709.629 259.992 709.074 259.43C708.527 258.859 708.109 258.203 707.82 257.461C707.531 256.719 707.387 255.926 707.387 255.082V254.637C707.387 253.691 707.52 252.82 707.785 252.023C708.051 251.227 708.438 250.535 708.945 249.949C709.461 249.355 710.094 248.898 710.844 248.578C711.594 248.25 712.449 248.086 713.41 248.086C714.309 248.086 715.109 248.234 715.812 248.531C716.516 248.82 717.109 249.238 717.594 249.785C718.078 250.324 718.445 250.977 718.695 251.742C718.953 252.5 719.082 253.352 719.082 254.297V255.797H708.863V253.441H715.496V253.16C715.496 252.715 715.414 252.324 715.25 251.988C715.094 251.652 714.859 251.395 714.547 251.215C714.242 251.027 713.855 250.934 713.387 250.934C712.941 250.934 712.57 251.027 712.273 251.215C711.977 251.402 711.738 251.668 711.559 252.012C711.387 252.348 711.262 252.742 711.184 253.195C711.105 253.641 711.066 254.121 711.066 254.637V255.082C711.066 255.574 711.133 256.023 711.266 256.43C711.398 256.836 711.594 257.184 711.852 257.473C712.109 257.762 712.422 257.988 712.789 258.152C713.156 258.316 713.574 258.398 714.043 258.398C714.621 258.398 715.172 258.289 715.695 258.07C716.219 257.844 716.672 257.492 717.055 257.016L718.766 258.973C718.508 259.348 718.145 259.711 717.676 260.062C717.215 260.406 716.66 260.688 716.012 260.906C715.363 261.125 714.629 261.234 713.809 261.234ZM724.531 251.273V261H720.875V248.32H724.309L724.531 251.273ZM728.316 248.227L728.258 251.637C728.102 251.613 727.898 251.594 727.648 251.578C727.398 251.555 727.184 251.543 727.004 251.543C726.535 251.543 726.129 251.602 725.785 251.719C725.449 251.828 725.168 251.992 724.941 252.211C724.723 252.43 724.559 252.703 724.449 253.031C724.34 253.352 724.285 253.723 724.285 254.145L723.594 253.805C723.594 252.969 723.676 252.203 723.84 251.508C724.004 250.812 724.242 250.211 724.555 249.703C724.867 249.188 725.25 248.789 725.703 248.508C726.156 248.227 726.672 248.086 727.25 248.086C727.438 248.086 727.629 248.098 727.824 248.121C728.02 248.145 728.184 248.18 728.316 248.227Z" fill="white"/>
<g filter="url(#filter3_d_10_260)">
<rect x="604" y="57" width="157" height="55" rx="10" fill="#8094C8"/>
<rect x="604.5" y="57.5" width="156" height="54" rx="9.5" stroke="black"/>
</g>
<path d="M646.18 93H642.5V79.2422C642.5 78.2656 642.691 77.4453 643.074 76.7812C643.465 76.1172 644.016 75.6133 644.727 75.2695C645.438 74.9258 646.277 74.7539 647.246 74.7539C647.582 74.7539 647.895 74.7773 648.184 74.8242C648.48 74.8633 648.77 74.918 649.051 74.9883V77.7188C648.902 77.6797 648.75 77.6523 648.594 77.6367C648.438 77.6211 648.25 77.6133 648.031 77.6133C647.641 77.6133 647.305 77.6758 647.023 77.8008C646.75 77.918 646.539 78.1016 646.391 78.3516C646.25 78.5938 646.18 78.8906 646.18 79.2422V93ZM648.688 80.3203V82.8867H640.648V80.3203H648.688ZM649.742 86.7891V86.543C649.742 85.6133 649.875 84.7578 650.141 83.9766C650.406 83.1875 650.797 82.5039 651.312 81.9258C651.828 81.3477 652.461 80.8984 653.211 80.5781C653.961 80.25 654.82 80.0859 655.789 80.0859C656.773 80.0859 657.641 80.25 658.391 80.5781C659.148 80.8984 659.785 81.3477 660.301 81.9258C660.816 82.5039 661.207 83.1875 661.473 83.9766C661.738 84.7578 661.871 85.6133 661.871 86.543V86.7891C661.871 87.7109 661.738 88.5664 661.473 89.3555C661.207 90.1367 660.816 90.8203 660.301 91.4062C659.785 91.9844 659.152 92.4336 658.402 92.7539C657.652 93.0742 656.789 93.2344 655.812 93.2344C654.844 93.2344 653.98 93.0742 653.223 92.7539C652.465 92.4336 651.828 91.9844 651.312 91.4062C650.797 90.8203 650.406 90.1367 650.141 89.3555C649.875 88.5664 649.742 87.7109 649.742 86.7891ZM653.41 86.543V86.7891C653.41 87.2891 653.449 87.7578 653.527 88.1953C653.613 88.6328 653.75 89.0156 653.938 89.3438C654.125 89.6719 654.371 89.9297 654.676 90.1172C654.988 90.2969 655.367 90.3867 655.812 90.3867C656.258 90.3867 656.633 90.2969 656.938 90.1172C657.242 89.9297 657.488 89.6719 657.676 89.3438C657.863 89.0156 657.996 88.6328 658.074 88.1953C658.16 87.7578 658.203 87.2891 658.203 86.7891V86.543C658.203 86.0508 658.16 85.5898 658.074 85.1602C657.996 84.7227 657.863 84.3359 657.676 84C657.488 83.6641 657.238 83.4023 656.926 83.2148C656.621 83.0273 656.242 82.9336 655.789 82.9336C655.352 82.9336 654.98 83.0273 654.676 83.2148C654.371 83.4023 654.125 83.6641 653.938 84C653.75 84.3359 653.613 84.7227 653.527 85.1602C653.449 85.5898 653.41 86.0508 653.41 86.543ZM667.648 75V93H663.98V75H667.648ZM674.141 75V93H670.473V75H674.141ZM676.25 86.7891V86.543C676.25 85.6133 676.383 84.7578 676.648 83.9766C676.914 83.1875 677.305 82.5039 677.82 81.9258C678.336 81.3477 678.969 80.8984 679.719 80.5781C680.469 80.25 681.328 80.0859 682.297 80.0859C683.281 80.0859 684.148 80.25 684.898 80.5781C685.656 80.8984 686.293 81.3477 686.809 81.9258C687.324 82.5039 687.715 83.1875 687.98 83.9766C688.246 84.7578 688.379 85.6133 688.379 86.543V86.7891C688.379 87.7109 688.246 88.5664 687.98 89.3555C687.715 90.1367 687.324 90.8203 686.809 91.4062C686.293 91.9844 685.66 92.4336 684.91 92.7539C684.16 93.0742 683.297 93.2344 682.32 93.2344C681.352 93.2344 680.488 93.0742 679.73 92.7539C678.973 92.4336 678.336 91.9844 677.82 91.4062C677.305 90.8203 676.914 90.1367 676.648 89.3555C676.383 88.5664 676.25 87.7109 676.25 86.7891ZM679.918 86.543V86.7891C679.918 87.2891 679.957 87.7578 680.035 88.1953C680.121 88.6328 680.258 89.0156 680.445 89.3438C680.633 89.6719 680.879 89.9297 681.184 90.1172C681.496 90.2969 681.875 90.3867 682.32 90.3867C682.766 90.3867 683.141 90.2969 683.445 90.1172C683.75 89.9297 683.996 89.6719 684.184 89.3438C684.371 89.0156 684.504 88.6328 684.582 88.1953C684.668 87.7578 684.711 87.2891 684.711 86.7891V86.543C684.711 86.0508 684.668 85.5898 684.582 85.1602C684.504 84.7227 684.371 84.3359 684.184 84C683.996 83.6641 683.746 83.4023 683.434 83.2148C683.129 83.0273 682.75 82.9336 682.297 82.9336C681.859 82.9336 681.488 83.0273 681.184 83.2148C680.879 83.4023 680.633 83.6641 680.445 84C680.258 84.3359 680.121 84.7227 680.035 85.1602C679.957 85.5898 679.918 86.0508 679.918 86.543ZM694.039 89.4727L696.523 80.3203H698.832L698.047 84.3984L695.562 93H693.676L694.039 89.4727ZM692.902 80.3203L694.566 89.4375L694.742 93H692.492L689.375 80.3203H692.902ZM701.082 89.2617L702.734 80.3203H706.262L703.168 93H700.918L701.082 89.2617ZM699.113 80.3203L701.621 89.4258L701.984 93H700.074L697.613 84.4102L696.863 80.3203H699.113ZM713.809 93.2344C712.801 93.2344 711.898 93.0742 711.102 92.7539C710.305 92.4336 709.629 91.9922 709.074 91.4297C708.527 90.8594 708.109 90.2031 707.82 89.4609C707.531 88.7188 707.387 87.9258 707.387 87.082V86.6367C707.387 85.6914 707.52 84.8203 707.785 84.0234C708.051 83.2266 708.438 82.5352 708.945 81.9492C709.461 81.3555 710.094 80.8984 710.844 80.5781C711.594 80.25 712.449 80.0859 713.41 80.0859C714.309 80.0859 715.109 80.2344 715.812 80.5312C716.516 80.8203 717.109 81.2383 717.594 81.7852C718.078 82.3242 718.445 82.9766 718.695 83.7422C718.953 84.5 719.082 85.3516 719.082 86.2969V87.7969H708.863V85.4414H715.496V85.1602C715.496 84.7148 715.414 84.3242 715.25 83.9883C715.094 83.6523 714.859 83.3945 714.547 83.2148C714.242 83.0273 713.855 82.9336 713.387 82.9336C712.941 82.9336 712.57 83.0273 712.273 83.2148C711.977 83.4023 711.738 83.668 711.559 84.0117C711.387 84.3477 711.262 84.7422 711.184 85.1953C711.105 85.6406 711.066 86.1211 711.066 86.6367V87.082C711.066 87.5742 711.133 88.0234 711.266 88.4297C711.398 88.8359 711.594 89.1836 711.852 89.4727C712.109 89.7617 712.422 89.9883 712.789 90.1523C713.156 90.3164 713.574 90.3984 714.043 90.3984C714.621 90.3984 715.172 90.2891 715.695 90.0703C716.219 89.8438 716.672 89.4922 717.055 89.0156L718.766 90.9727C718.508 91.3477 718.145 91.7109 717.676 92.0625C717.215 92.4062 716.66 92.6875 716.012 92.9062C715.363 93.125 714.629 93.2344 713.809 93.2344ZM724.531 83.2734V93H720.875V80.3203H724.309L724.531 83.2734ZM728.316 80.2266L728.258 83.6367C728.102 83.6133 727.898 83.5938 727.648 83.5781C727.398 83.5547 727.184 83.543 727.004 83.543C726.535 83.543 726.129 83.6016 725.785 83.7188C725.449 83.8281 725.168 83.9922 724.941 84.2109C724.723 84.4297 724.559 84.7031 724.449 85.0312C724.34 85.3516 724.285 85.7227 724.285 86.1445L723.594 85.8047C723.594 84.9688 723.676 84.2031 723.84 83.5078C724.004 82.8125 724.242 82.2109 724.555 81.7031C724.867 81.1875 725.25 80.7891 725.703 80.5078C726.156 80.2266 726.672 80.0859 727.25 80.0859C727.438 80.0859 727.629 80.0977 727.824 80.1211C728.02 80.1445 728.184 80.1797 728.316 80.2266Z" fill="white"/>
<path d="M329.707 175.707C330.098 175.317 330.098 174.683 329.707 174.293L323.343 167.929C322.953 167.538 322.319 167.538 321.929 167.929C321.538 168.319 321.538 168.953 321.929 169.343L327.586 175L321.929 180.657C321.538 181.047 321.538 181.681 321.929 182.071C322.319 182.462 322.953 182.462 323.343 182.071L329.707 175.707ZM204 176H329V174H204V176Z" fill="black"/>
<path d="M604.992 84.1281C605.063 83.5804 604.676 83.079 604.128 83.0082L595.202 81.8551C594.655 81.7844 594.153 82.171 594.082 82.7188C594.012 83.2665 594.398 83.7679 594.946 83.8387L602.88 84.8636L601.855 92.7977C601.784 93.3454 602.171 93.8468 602.719 93.9176C603.267 93.9883 603.768 93.6017 603.839 93.0539L604.992 84.1281ZM486.611 175.792L604.611 84.7919L603.389 83.2081L485.389 174.208L486.611 175.792Z" fill="black"/>
<path d="M604.206 252.979C604.746 252.865 605.092 252.335 604.979 251.794L603.127 242.987C603.013 242.446 602.483 242.1 601.942 242.214C601.402 242.328 601.056 242.858 601.17 243.398L602.816 251.227L594.987 252.873C594.446 252.987 594.1 253.517 594.214 254.058C594.328 254.598 594.858 254.944 595.398 254.83L604.206 252.979ZM485.454 175.837L603.454 252.837L604.546 251.163L486.546 174.163L485.454 175.837Z" fill="black"/>
<path d="M228.635 185.617V197H226.19V188.398L223.55 189.203V187.312L228.393 185.617H228.635ZM232.417 195.844C232.417 195.49 232.542 195.193 232.792 194.953C233.047 194.714 233.378 194.594 233.784 194.594C234.195 194.594 234.523 194.714 234.768 194.953C235.018 195.193 235.143 195.49 235.143 195.844C235.143 196.193 235.018 196.487 234.768 196.727C234.523 196.966 234.195 197.086 233.784 197.086C233.378 197.086 233.047 196.966 232.792 196.727C232.542 196.487 232.417 196.193 232.417 195.844ZM244.812 190.516V197H242.375V188.547H244.664L244.812 190.516ZM247.336 188.484L247.297 190.758C247.193 190.742 247.057 190.729 246.891 190.719C246.724 190.703 246.581 190.695 246.461 190.695C246.148 190.695 245.878 190.734 245.648 190.812C245.424 190.885 245.237 190.995 245.086 191.141C244.94 191.286 244.831 191.469 244.758 191.688C244.685 191.901 244.648 192.148 244.648 192.43L244.188 192.203C244.188 191.646 244.242 191.135 244.352 190.672C244.461 190.208 244.62 189.807 244.828 189.469C245.036 189.125 245.292 188.859 245.594 188.672C245.896 188.484 246.24 188.391 246.625 188.391C246.75 188.391 246.878 188.398 247.008 188.414C247.138 188.43 247.247 188.453 247.336 188.484ZM252.164 197.156C251.492 197.156 250.891 197.049 250.359 196.836C249.828 196.622 249.378 196.328 249.008 195.953C248.643 195.573 248.365 195.135 248.172 194.641C247.979 194.146 247.883 193.617 247.883 193.055V192.758C247.883 192.128 247.971 191.547 248.148 191.016C248.326 190.484 248.583 190.023 248.922 189.633C249.266 189.237 249.688 188.932 250.188 188.719C250.688 188.5 251.258 188.391 251.898 188.391C252.497 188.391 253.031 188.49 253.5 188.688C253.969 188.88 254.365 189.159 254.688 189.523C255.01 189.883 255.255 190.318 255.422 190.828C255.594 191.333 255.68 191.901 255.68 192.531V193.531H248.867V191.961H253.289V191.773C253.289 191.477 253.234 191.216 253.125 190.992C253.021 190.768 252.865 190.596 252.656 190.477C252.453 190.352 252.195 190.289 251.883 190.289C251.586 190.289 251.339 190.352 251.141 190.477C250.943 190.602 250.784 190.779 250.664 191.008C250.549 191.232 250.466 191.495 250.414 191.797C250.362 192.094 250.336 192.414 250.336 192.758V193.055C250.336 193.383 250.38 193.682 250.469 193.953C250.557 194.224 250.688 194.456 250.859 194.648C251.031 194.841 251.24 194.992 251.484 195.102C251.729 195.211 252.008 195.266 252.32 195.266C252.706 195.266 253.073 195.193 253.422 195.047C253.771 194.896 254.073 194.661 254.328 194.344L255.469 195.648C255.297 195.898 255.055 196.141 254.742 196.375C254.435 196.604 254.065 196.792 253.633 196.938C253.201 197.083 252.711 197.156 252.164 197.156ZM261.789 200.25V190.297L262.117 188.547H264.242V200.25H261.789ZM256.523 192.852V192.688C256.523 192.047 256.594 191.464 256.734 190.938C256.875 190.406 257.083 189.953 257.359 189.578C257.641 189.198 257.987 188.906 258.398 188.703C258.81 188.495 259.284 188.391 259.82 188.391C260.326 188.391 260.763 188.497 261.133 188.711C261.503 188.924 261.812 189.224 262.062 189.609C262.312 189.995 262.516 190.448 262.672 190.969C262.828 191.49 262.948 192.057 263.031 192.672V192.953C262.948 193.531 262.828 194.076 262.672 194.586C262.521 195.091 262.318 195.536 262.062 195.922C261.812 196.307 261.5 196.609 261.125 196.828C260.755 197.047 260.315 197.156 259.805 197.156C259.273 197.156 258.802 197.049 258.391 196.836C257.984 196.617 257.643 196.315 257.367 195.93C257.091 195.539 256.88 195.083 256.734 194.562C256.594 194.036 256.523 193.466 256.523 192.852ZM258.961 192.688V192.852C258.961 193.19 258.984 193.505 259.031 193.797C259.083 194.083 259.167 194.339 259.281 194.562C259.396 194.781 259.547 194.953 259.734 195.078C259.922 195.198 260.151 195.258 260.422 195.258C260.818 195.258 261.133 195.172 261.367 195C261.602 194.828 261.771 194.589 261.875 194.281C261.984 193.974 262.042 193.622 262.047 193.227V192.398C262.042 192.065 262.008 191.768 261.945 191.508C261.888 191.247 261.797 191.026 261.672 190.844C261.547 190.661 261.383 190.523 261.18 190.43C260.982 190.336 260.734 190.289 260.438 190.289C260.167 190.289 259.938 190.349 259.75 190.469C259.562 190.589 259.411 190.758 259.297 190.977C259.182 191.19 259.096 191.443 259.039 191.734C258.987 192.026 258.961 192.344 258.961 192.688ZM270.844 194.961V188.547H273.297V197H271L270.844 194.961ZM271.102 193.234L271.773 193.219C271.773 193.786 271.706 194.31 271.57 194.789C271.44 195.268 271.242 195.685 270.977 196.039C270.716 196.393 270.391 196.669 270 196.867C269.615 197.06 269.164 197.156 268.648 197.156C268.232 197.156 267.849 197.099 267.5 196.984C267.156 196.865 266.859 196.68 266.609 196.43C266.359 196.174 266.167 195.849 266.031 195.453C265.896 195.052 265.828 194.573 265.828 194.016V188.547H268.266V194.031C268.266 194.25 268.292 194.438 268.344 194.594C268.401 194.745 268.477 194.87 268.57 194.969C268.669 195.068 268.789 195.141 268.93 195.188C269.076 195.234 269.234 195.258 269.406 195.258C269.839 195.258 270.177 195.169 270.422 194.992C270.672 194.81 270.846 194.568 270.945 194.266C271.049 193.958 271.102 193.615 271.102 193.234ZM278.867 197.156C278.195 197.156 277.594 197.049 277.062 196.836C276.531 196.622 276.081 196.328 275.711 195.953C275.346 195.573 275.068 195.135 274.875 194.641C274.682 194.146 274.586 193.617 274.586 193.055V192.758C274.586 192.128 274.674 191.547 274.852 191.016C275.029 190.484 275.286 190.023 275.625 189.633C275.969 189.237 276.391 188.932 276.891 188.719C277.391 188.5 277.961 188.391 278.602 188.391C279.201 188.391 279.734 188.49 280.203 188.688C280.672 188.88 281.068 189.159 281.391 189.523C281.714 189.883 281.958 190.318 282.125 190.828C282.297 191.333 282.383 191.901 282.383 192.531V193.531H275.57V191.961H279.992V191.773C279.992 191.477 279.938 191.216 279.828 190.992C279.724 190.768 279.568 190.596 279.359 190.477C279.156 190.352 278.898 190.289 278.586 190.289C278.289 190.289 278.042 190.352 277.844 190.477C277.646 190.602 277.487 190.779 277.367 191.008C277.253 191.232 277.169 191.495 277.117 191.797C277.065 192.094 277.039 192.414 277.039 192.758V193.055C277.039 193.383 277.083 193.682 277.172 193.953C277.26 194.224 277.391 194.456 277.562 194.648C277.734 194.841 277.943 194.992 278.188 195.102C278.432 195.211 278.711 195.266 279.023 195.266C279.409 195.266 279.776 195.193 280.125 195.047C280.474 194.896 280.776 194.661 281.031 194.344L282.172 195.648C282 195.898 281.758 196.141 281.445 196.375C281.138 196.604 280.768 196.792 280.336 196.938C279.904 197.083 279.414 197.156 278.867 197.156ZM288.07 194.648C288.07 194.492 288.021 194.354 287.922 194.234C287.828 194.115 287.656 194.005 287.406 193.906C287.161 193.807 286.815 193.708 286.367 193.609C285.945 193.521 285.552 193.406 285.188 193.266C284.823 193.12 284.505 192.945 284.234 192.742C283.964 192.534 283.753 192.289 283.602 192.008C283.451 191.721 283.375 191.396 283.375 191.031C283.375 190.677 283.451 190.341 283.602 190.023C283.758 189.706 283.982 189.424 284.273 189.18C284.57 188.935 284.93 188.742 285.352 188.602C285.779 188.461 286.263 188.391 286.805 188.391C287.549 188.391 288.193 188.508 288.734 188.742C289.276 188.971 289.693 189.294 289.984 189.711C290.276 190.122 290.422 190.594 290.422 191.125H287.984C287.984 190.906 287.943 190.716 287.859 190.555C287.776 190.393 287.648 190.268 287.477 190.18C287.305 190.086 287.078 190.039 286.797 190.039C286.578 190.039 286.385 190.078 286.219 190.156C286.057 190.229 285.93 190.331 285.836 190.461C285.747 190.591 285.703 190.742 285.703 190.914C285.703 191.034 285.729 191.143 285.781 191.242C285.839 191.336 285.924 191.424 286.039 191.508C286.159 191.586 286.312 191.656 286.5 191.719C286.693 191.781 286.927 191.841 287.203 191.898C287.792 192.008 288.328 192.161 288.812 192.359C289.302 192.557 289.693 192.831 289.984 193.18C290.281 193.529 290.43 193.99 290.43 194.562C290.43 194.938 290.344 195.281 290.172 195.594C290.005 195.906 289.763 196.18 289.445 196.414C289.128 196.648 288.747 196.831 288.305 196.961C287.862 197.091 287.362 197.156 286.805 197.156C286.008 197.156 285.333 197.013 284.781 196.727C284.229 196.44 283.812 196.081 283.531 195.648C283.255 195.211 283.117 194.763 283.117 194.305H285.406C285.417 194.586 285.487 194.815 285.617 194.992C285.753 195.169 285.927 195.299 286.141 195.383C286.354 195.461 286.594 195.5 286.859 195.5C287.125 195.5 287.346 195.464 287.523 195.391C287.701 195.318 287.836 195.219 287.93 195.094C288.023 194.964 288.07 194.815 288.07 194.648ZM296.086 188.547V190.258H291.07V188.547H296.086ZM292.219 186.453H294.664V194.352C294.664 194.586 294.693 194.766 294.75 194.891C294.807 195.016 294.901 195.104 295.031 195.156C295.161 195.203 295.328 195.227 295.531 195.227C295.677 195.227 295.802 195.221 295.906 195.211C296.01 195.201 296.107 195.188 296.195 195.172V196.938C295.987 197.005 295.766 197.057 295.531 197.094C295.297 197.135 295.042 197.156 294.766 197.156C294.24 197.156 293.784 197.07 293.398 196.898C293.018 196.727 292.727 196.456 292.523 196.086C292.32 195.711 292.219 195.224 292.219 194.625V186.453Z" fill="black"/>
<path d="M558.284 144.102V146H550.425V144.391L554.096 140.5C554.44 140.104 554.714 139.755 554.917 139.453C555.125 139.151 555.276 138.878 555.37 138.633C555.464 138.383 555.51 138.154 555.51 137.945C555.51 137.607 555.456 137.32 555.346 137.086C555.242 136.852 555.089 136.672 554.885 136.547C554.682 136.422 554.435 136.359 554.143 136.359C553.831 136.359 553.563 136.44 553.339 136.602C553.115 136.763 552.943 136.987 552.823 137.273C552.703 137.555 552.643 137.875 552.643 138.234H550.19C550.19 137.542 550.357 136.911 550.69 136.344C551.023 135.771 551.49 135.315 552.089 134.977C552.688 134.633 553.388 134.461 554.19 134.461C555.013 134.461 555.703 134.591 556.26 134.852C556.818 135.112 557.24 135.484 557.526 135.969C557.813 136.453 557.956 137.036 557.956 137.719C557.956 138.104 557.893 138.477 557.768 138.836C557.648 139.195 557.474 139.552 557.245 139.906C557.016 140.26 556.74 140.622 556.417 140.992C556.094 141.357 555.729 141.742 555.323 142.148L553.604 144.102H558.284ZM559.862 144.844C559.862 144.49 559.987 144.193 560.237 143.953C560.492 143.714 560.823 143.594 561.229 143.594C561.641 143.594 561.969 143.714 562.214 143.953C562.464 144.193 562.589 144.49 562.589 144.844C562.589 145.193 562.464 145.487 562.214 145.727C561.969 145.966 561.641 146.086 561.229 146.086C560.823 146.086 560.492 145.966 560.237 145.727C559.987 145.487 559.862 145.193 559.862 144.844ZM572.258 139.516V146H569.82V137.547H572.109L572.258 139.516ZM574.781 137.484L574.742 139.758C574.638 139.742 574.503 139.729 574.336 139.719C574.169 139.703 574.026 139.695 573.906 139.695C573.594 139.695 573.323 139.734 573.094 139.812C572.87 139.885 572.682 139.995 572.531 140.141C572.385 140.286 572.276 140.469 572.203 140.688C572.13 140.901 572.094 141.148 572.094 141.43L571.633 141.203C571.633 140.646 571.688 140.135 571.797 139.672C571.906 139.208 572.065 138.807 572.273 138.469C572.482 138.125 572.737 137.859 573.039 137.672C573.341 137.484 573.685 137.391 574.07 137.391C574.195 137.391 574.323 137.398 574.453 137.414C574.583 137.43 574.693 137.453 574.781 137.484ZM579.609 146.156C578.938 146.156 578.336 146.049 577.805 145.836C577.273 145.622 576.823 145.328 576.453 144.953C576.089 144.573 575.81 144.135 575.617 143.641C575.424 143.146 575.328 142.617 575.328 142.055V141.758C575.328 141.128 575.417 140.547 575.594 140.016C575.771 139.484 576.029 139.023 576.367 138.633C576.711 138.237 577.133 137.932 577.633 137.719C578.133 137.5 578.703 137.391 579.344 137.391C579.943 137.391 580.477 137.49 580.945 137.688C581.414 137.88 581.81 138.159 582.133 138.523C582.456 138.883 582.701 139.318 582.867 139.828C583.039 140.333 583.125 140.901 583.125 141.531V142.531H576.312V140.961H580.734V140.773C580.734 140.477 580.68 140.216 580.57 139.992C580.466 139.768 580.31 139.596 580.102 139.477C579.898 139.352 579.641 139.289 579.328 139.289C579.031 139.289 578.784 139.352 578.586 139.477C578.388 139.602 578.229 139.779 578.109 140.008C577.995 140.232 577.911 140.495 577.859 140.797C577.807 141.094 577.781 141.414 577.781 141.758V142.055C577.781 142.383 577.826 142.682 577.914 142.953C578.003 143.224 578.133 143.456 578.305 143.648C578.477 143.841 578.685 143.992 578.93 144.102C579.174 144.211 579.453 144.266 579.766 144.266C580.151 144.266 580.518 144.193 580.867 144.047C581.216 143.896 581.518 143.661 581.773 143.344L582.914 144.648C582.742 144.898 582.5 145.141 582.188 145.375C581.88 145.604 581.51 145.792 581.078 145.938C580.646 146.083 580.156 146.156 579.609 146.156ZM586.758 139.172V149.25H584.32V137.547H586.594L586.758 139.172ZM592.031 141.68V141.844C592.031 142.458 591.961 143.029 591.82 143.555C591.68 144.076 591.469 144.531 591.188 144.922C590.911 145.312 590.57 145.617 590.164 145.836C589.758 146.049 589.286 146.156 588.75 146.156C588.24 146.156 587.797 146.049 587.422 145.836C587.052 145.617 586.74 145.315 586.484 144.93C586.234 144.539 586.031 144.094 585.875 143.594C585.724 143.089 585.607 142.549 585.523 141.977V141.656C585.607 141.047 585.727 140.482 585.883 139.961C586.039 139.44 586.242 138.99 586.492 138.609C586.742 138.224 587.052 137.924 587.422 137.711C587.792 137.497 588.232 137.391 588.742 137.391C589.273 137.391 589.745 137.492 590.156 137.695C590.568 137.898 590.911 138.19 591.188 138.57C591.469 138.945 591.68 139.396 591.82 139.922C591.961 140.448 592.031 141.034 592.031 141.68ZM589.586 141.844V141.68C589.586 141.336 589.56 141.021 589.508 140.734C589.456 140.443 589.372 140.19 589.258 139.977C589.143 139.758 588.992 139.589 588.805 139.469C588.617 139.349 588.388 139.289 588.117 139.289C587.826 139.289 587.578 139.336 587.375 139.43C587.172 139.523 587.008 139.661 586.883 139.844C586.758 140.021 586.667 140.24 586.609 140.5C586.557 140.76 586.529 141.057 586.523 141.391V142.25C586.529 142.641 586.583 142.99 586.688 143.297C586.797 143.599 586.966 143.836 587.195 144.008C587.43 144.174 587.742 144.258 588.133 144.258C588.409 144.258 588.638 144.198 588.82 144.078C589.008 143.953 589.156 143.779 589.266 143.555C589.38 143.331 589.461 143.073 589.508 142.781C589.56 142.49 589.586 142.177 589.586 141.844ZM595.898 134V146H593.453V134H595.898ZM600.227 137.547V146H597.781V137.547H600.227ZM597.633 135.359C597.633 135.005 597.758 134.716 598.008 134.492C598.258 134.263 598.586 134.148 598.992 134.148C599.398 134.148 599.727 134.263 599.977 134.492C600.232 134.716 600.359 135.005 600.359 135.359C600.359 135.708 600.232 135.997 599.977 136.227C599.727 136.451 599.398 136.562 598.992 136.562C598.586 136.562 598.258 136.451 598.008 136.227C597.758 135.997 597.633 135.708 597.633 135.359ZM605.516 144.258C605.776 144.258 606.003 144.208 606.195 144.109C606.388 144.01 606.536 143.872 606.641 143.695C606.75 143.513 606.805 143.294 606.805 143.039H609.102C609.102 143.654 608.943 144.195 608.625 144.664C608.312 145.133 607.891 145.5 607.359 145.766C606.828 146.026 606.229 146.156 605.562 146.156C604.906 146.156 604.333 146.049 603.844 145.836C603.354 145.617 602.945 145.312 602.617 144.922C602.289 144.531 602.042 144.078 601.875 143.562C601.714 143.042 601.633 142.479 601.633 141.875V141.672C601.633 141.073 601.714 140.513 601.875 139.992C602.042 139.471 602.289 139.016 602.617 138.625C602.945 138.234 603.352 137.932 603.836 137.719C604.326 137.5 604.898 137.391 605.555 137.391C606.247 137.391 606.859 137.523 607.391 137.789C607.927 138.055 608.346 138.438 608.648 138.938C608.951 139.432 609.102 140.029 609.102 140.727H606.805C606.805 140.456 606.755 140.214 606.656 140C606.562 139.781 606.417 139.609 606.219 139.484C606.026 139.354 605.786 139.289 605.5 139.289C605.203 139.289 604.958 139.354 604.766 139.484C604.578 139.609 604.435 139.784 604.336 140.008C604.237 140.232 604.169 140.487 604.133 140.773C604.096 141.055 604.078 141.354 604.078 141.672V141.875C604.078 142.198 604.096 142.505 604.133 142.797C604.169 143.083 604.237 143.336 604.336 143.555C604.44 143.773 604.586 143.945 604.773 144.07C604.961 144.195 605.208 144.258 605.516 144.258ZM614.789 143.984V140.359C614.789 140.104 614.75 139.885 614.672 139.703C614.594 139.521 614.471 139.378 614.305 139.273C614.138 139.169 613.922 139.117 613.656 139.117C613.432 139.117 613.237 139.156 613.07 139.234C612.909 139.312 612.784 139.424 612.695 139.57C612.612 139.716 612.57 139.896 612.57 140.109H610.133C610.133 139.729 610.219 139.375 610.391 139.047C610.562 138.719 610.807 138.43 611.125 138.18C611.448 137.93 611.833 137.737 612.281 137.602C612.729 137.461 613.232 137.391 613.789 137.391C614.451 137.391 615.039 137.503 615.555 137.727C616.076 137.945 616.487 138.276 616.789 138.719C617.091 139.156 617.242 139.708 617.242 140.375V143.914C617.242 144.424 617.271 144.826 617.328 145.117C617.391 145.404 617.479 145.654 617.594 145.867V146H615.133C615.018 145.755 614.932 145.453 614.875 145.094C614.818 144.729 614.789 144.359 614.789 143.984ZM615.094 140.844L615.109 142.188H613.898C613.628 142.188 613.393 142.221 613.195 142.289C613.003 142.357 612.846 142.451 612.727 142.57C612.607 142.685 612.518 142.82 612.461 142.977C612.409 143.128 612.383 143.294 612.383 143.477C612.383 143.648 612.424 143.805 612.508 143.945C612.591 144.081 612.706 144.188 612.852 144.266C612.997 144.344 613.167 144.383 613.359 144.383C613.677 144.383 613.948 144.32 614.172 144.195C614.401 144.07 614.578 143.919 614.703 143.742C614.828 143.56 614.891 143.391 614.891 143.234L615.477 144.25C615.383 144.458 615.268 144.674 615.133 144.898C614.997 145.117 614.826 145.323 614.617 145.516C614.409 145.703 614.156 145.857 613.859 145.977C613.568 146.096 613.216 146.156 612.805 146.156C612.273 146.156 611.792 146.049 611.359 145.836C610.927 145.617 610.581 145.318 610.32 144.938C610.065 144.557 609.938 144.12 609.938 143.625C609.938 143.182 610.018 142.789 610.18 142.445C610.341 142.102 610.583 141.81 610.906 141.57C611.234 141.331 611.646 141.151 612.141 141.031C612.635 140.906 613.214 140.844 613.875 140.844H615.094ZM623.141 137.547V139.258H618.125V137.547H623.141ZM619.273 135.453H621.719V143.352C621.719 143.586 621.747 143.766 621.805 143.891C621.862 144.016 621.956 144.104 622.086 144.156C622.216 144.203 622.383 144.227 622.586 144.227C622.732 144.227 622.857 144.221 622.961 144.211C623.065 144.201 623.161 144.188 623.25 144.172V145.938C623.042 146.005 622.82 146.057 622.586 146.094C622.352 146.135 622.096 146.156 621.82 146.156C621.294 146.156 620.839 146.07 620.453 145.898C620.073 145.727 619.781 145.456 619.578 145.086C619.375 144.711 619.273 144.224 619.273 143.625V135.453ZM626.883 137.547V146H624.438V137.547H626.883ZM624.289 135.359C624.289 135.005 624.414 134.716 624.664 134.492C624.914 134.263 625.242 134.148 625.648 134.148C626.055 134.148 626.383 134.263 626.633 134.492C626.888 134.716 627.016 135.005 627.016 135.359C627.016 135.708 626.888 135.997 626.633 136.227C626.383 136.451 626.055 136.562 625.648 136.562C625.242 136.562 624.914 136.451 624.664 136.227C624.414 135.997 624.289 135.708 624.289 135.359ZM628.289 141.859V141.695C628.289 141.076 628.378 140.505 628.555 139.984C628.732 139.458 628.992 139.003 629.336 138.617C629.68 138.232 630.102 137.932 630.602 137.719C631.102 137.5 631.674 137.391 632.32 137.391C632.977 137.391 633.555 137.5 634.055 137.719C634.56 137.932 634.984 138.232 635.328 138.617C635.672 139.003 635.932 139.458 636.109 139.984C636.286 140.505 636.375 141.076 636.375 141.695V141.859C636.375 142.474 636.286 143.044 636.109 143.57C635.932 144.091 635.672 144.547 635.328 144.938C634.984 145.323 634.562 145.622 634.062 145.836C633.562 146.049 632.987 146.156 632.336 146.156C631.69 146.156 631.115 146.049 630.609 145.836C630.104 145.622 629.68 145.323 629.336 144.938C628.992 144.547 628.732 144.091 628.555 143.57C628.378 143.044 628.289 142.474 628.289 141.859ZM630.734 141.695V141.859C630.734 142.193 630.76 142.505 630.812 142.797C630.87 143.089 630.961 143.344 631.086 143.562C631.211 143.781 631.375 143.953 631.578 144.078C631.786 144.198 632.039 144.258 632.336 144.258C632.633 144.258 632.883 144.198 633.086 144.078C633.289 143.953 633.453 143.781 633.578 143.562C633.703 143.344 633.792 143.089 633.844 142.797C633.901 142.505 633.93 142.193 633.93 141.859V141.695C633.93 141.367 633.901 141.06 633.844 140.773C633.792 140.482 633.703 140.224 633.578 140C633.453 139.776 633.286 139.602 633.078 139.477C632.875 139.352 632.622 139.289 632.32 139.289C632.029 139.289 631.781 139.352 631.578 139.477C631.375 139.602 631.211 139.776 631.086 140C630.961 140.224 630.87 140.482 630.812 140.773C630.76 141.06 630.734 141.367 630.734 141.695ZM640.047 139.352V146H637.602V137.547H639.898L640.047 139.352ZM639.727 141.477L639.117 141.492C639.117 140.857 639.195 140.286 639.352 139.781C639.508 139.276 639.729 138.846 640.016 138.492C640.307 138.133 640.654 137.859 641.055 137.672C641.461 137.484 641.909 137.391 642.398 137.391C642.794 137.391 643.156 137.448 643.484 137.562C643.812 137.677 644.094 137.862 644.328 138.117C644.568 138.367 644.75 138.701 644.875 139.117C645 139.529 645.062 140.036 645.062 140.641V146H642.609V140.633C642.609 140.279 642.56 140.005 642.461 139.812C642.362 139.62 642.216 139.484 642.023 139.406C641.836 139.328 641.607 139.289 641.336 139.289C641.049 139.289 640.805 139.346 640.602 139.461C640.398 139.57 640.232 139.724 640.102 139.922C639.971 140.12 639.875 140.352 639.812 140.617C639.755 140.883 639.727 141.169 639.727 141.477Z" fill="black"/>
<path d="M558.284 202.102V204H550.425V202.391L554.096 198.5C554.44 198.104 554.714 197.755 554.917 197.453C555.125 197.151 555.276 196.878 555.37 196.633C555.464 196.383 555.51 196.154 555.51 195.945C555.51 195.607 555.456 195.32 555.346 195.086C555.242 194.852 555.089 194.672 554.885 194.547C554.682 194.422 554.435 194.359 554.143 194.359C553.831 194.359 553.563 194.44 553.339 194.602C553.115 194.763 552.943 194.987 552.823 195.273C552.703 195.555 552.643 195.875 552.643 196.234H550.19C550.19 195.542 550.357 194.911 550.69 194.344C551.023 193.771 551.49 193.315 552.089 192.977C552.688 192.633 553.388 192.461 554.19 192.461C555.013 192.461 555.703 192.591 556.26 192.852C556.818 193.112 557.24 193.484 557.526 193.969C557.813 194.453 557.956 195.036 557.956 195.719C557.956 196.104 557.893 196.477 557.768 196.836C557.648 197.195 557.474 197.552 557.245 197.906C557.016 198.26 556.74 198.622 556.417 198.992C556.094 199.357 555.729 199.742 555.323 200.148L553.604 202.102H558.284ZM559.862 202.844C559.862 202.49 559.987 202.193 560.237 201.953C560.492 201.714 560.823 201.594 561.229 201.594C561.641 201.594 561.969 201.714 562.214 201.953C562.464 202.193 562.589 202.49 562.589 202.844C562.589 203.193 562.464 203.487 562.214 203.727C561.969 203.966 561.641 204.086 561.229 204.086C560.823 204.086 560.492 203.966 560.237 203.727C559.987 203.487 559.862 203.193 559.862 202.844ZM572.258 197.516V204H569.82V195.547H572.109L572.258 197.516ZM574.781 195.484L574.742 197.758C574.638 197.742 574.503 197.729 574.336 197.719C574.169 197.703 574.026 197.695 573.906 197.695C573.594 197.695 573.323 197.734 573.094 197.812C572.87 197.885 572.682 197.995 572.531 198.141C572.385 198.286 572.276 198.469 572.203 198.688C572.13 198.901 572.094 199.148 572.094 199.43L571.633 199.203C571.633 198.646 571.688 198.135 571.797 197.672C571.906 197.208 572.065 196.807 572.273 196.469C572.482 196.125 572.737 195.859 573.039 195.672C573.341 195.484 573.685 195.391 574.07 195.391C574.195 195.391 574.323 195.398 574.453 195.414C574.583 195.43 574.693 195.453 574.781 195.484ZM579.609 204.156C578.938 204.156 578.336 204.049 577.805 203.836C577.273 203.622 576.823 203.328 576.453 202.953C576.089 202.573 575.81 202.135 575.617 201.641C575.424 201.146 575.328 200.617 575.328 200.055V199.758C575.328 199.128 575.417 198.547 575.594 198.016C575.771 197.484 576.029 197.023 576.367 196.633C576.711 196.237 577.133 195.932 577.633 195.719C578.133 195.5 578.703 195.391 579.344 195.391C579.943 195.391 580.477 195.49 580.945 195.688C581.414 195.88 581.81 196.159 582.133 196.523C582.456 196.883 582.701 197.318 582.867 197.828C583.039 198.333 583.125 198.901 583.125 199.531V200.531H576.312V198.961H580.734V198.773C580.734 198.477 580.68 198.216 580.57 197.992C580.466 197.768 580.31 197.596 580.102 197.477C579.898 197.352 579.641 197.289 579.328 197.289C579.031 197.289 578.784 197.352 578.586 197.477C578.388 197.602 578.229 197.779 578.109 198.008C577.995 198.232 577.911 198.495 577.859 198.797C577.807 199.094 577.781 199.414 577.781 199.758V200.055C577.781 200.383 577.826 200.682 577.914 200.953C578.003 201.224 578.133 201.456 578.305 201.648C578.477 201.841 578.685 201.992 578.93 202.102C579.174 202.211 579.453 202.266 579.766 202.266C580.151 202.266 580.518 202.193 580.867 202.047C581.216 201.896 581.518 201.661 581.773 201.344L582.914 202.648C582.742 202.898 582.5 203.141 582.188 203.375C581.88 203.604 581.51 203.792 581.078 203.938C580.646 204.083 580.156 204.156 579.609 204.156ZM586.758 197.172V207.25H584.32V195.547H586.594L586.758 197.172ZM592.031 199.68V199.844C592.031 200.458 591.961 201.029 591.82 201.555C591.68 202.076 591.469 202.531 591.188 202.922C590.911 203.312 590.57 203.617 590.164 203.836C589.758 204.049 589.286 204.156 588.75 204.156C588.24 204.156 587.797 204.049 587.422 203.836C587.052 203.617 586.74 203.315 586.484 202.93C586.234 202.539 586.031 202.094 585.875 201.594C585.724 201.089 585.607 200.549 585.523 199.977V199.656C585.607 199.047 585.727 198.482 585.883 197.961C586.039 197.44 586.242 196.99 586.492 196.609C586.742 196.224 587.052 195.924 587.422 195.711C587.792 195.497 588.232 195.391 588.742 195.391C589.273 195.391 589.745 195.492 590.156 195.695C590.568 195.898 590.911 196.19 591.188 196.57C591.469 196.945 591.68 197.396 591.82 197.922C591.961 198.448 592.031 199.034 592.031 199.68ZM589.586 199.844V199.68C589.586 199.336 589.56 199.021 589.508 198.734C589.456 198.443 589.372 198.19 589.258 197.977C589.143 197.758 588.992 197.589 588.805 197.469C588.617 197.349 588.388 197.289 588.117 197.289C587.826 197.289 587.578 197.336 587.375 197.43C587.172 197.523 587.008 197.661 586.883 197.844C586.758 198.021 586.667 198.24 586.609 198.5C586.557 198.76 586.529 199.057 586.523 199.391V200.25C586.529 200.641 586.583 200.99 586.688 201.297C586.797 201.599 586.966 201.836 587.195 202.008C587.43 202.174 587.742 202.258 588.133 202.258C588.409 202.258 588.638 202.198 588.82 202.078C589.008 201.953 589.156 201.779 589.266 201.555C589.38 201.331 589.461 201.073 589.508 200.781C589.56 200.49 589.586 200.177 589.586 199.844ZM595.898 192V204H593.453V192H595.898ZM600.227 195.547V204H597.781V195.547H600.227ZM597.633 193.359C597.633 193.005 597.758 192.716 598.008 192.492C598.258 192.263 598.586 192.148 598.992 192.148C599.398 192.148 599.727 192.263 599.977 192.492C600.232 192.716 600.359 193.005 600.359 193.359C600.359 193.708 600.232 193.997 599.977 194.227C599.727 194.451 599.398 194.562 598.992 194.562C598.586 194.562 598.258 194.451 598.008 194.227C597.758 193.997 597.633 193.708 597.633 193.359ZM605.516 202.258C605.776 202.258 606.003 202.208 606.195 202.109C606.388 202.01 606.536 201.872 606.641 201.695C606.75 201.513 606.805 201.294 606.805 201.039H609.102C609.102 201.654 608.943 202.195 608.625 202.664C608.312 203.133 607.891 203.5 607.359 203.766C606.828 204.026 606.229 204.156 605.562 204.156C604.906 204.156 604.333 204.049 603.844 203.836C603.354 203.617 602.945 203.312 602.617 202.922C602.289 202.531 602.042 202.078 601.875 201.562C601.714 201.042 601.633 200.479 601.633 199.875V199.672C601.633 199.073 601.714 198.513 601.875 197.992C602.042 197.471 602.289 197.016 602.617 196.625C602.945 196.234 603.352 195.932 603.836 195.719C604.326 195.5 604.898 195.391 605.555 195.391C606.247 195.391 606.859 195.523 607.391 195.789C607.927 196.055 608.346 196.438 608.648 196.938C608.951 197.432 609.102 198.029 609.102 198.727H606.805C606.805 198.456 606.755 198.214 606.656 198C606.562 197.781 606.417 197.609 606.219 197.484C606.026 197.354 605.786 197.289 605.5 197.289C605.203 197.289 604.958 197.354 604.766 197.484C604.578 197.609 604.435 197.784 604.336 198.008C604.237 198.232 604.169 198.487 604.133 198.773C604.096 199.055 604.078 199.354 604.078 199.672V199.875C604.078 200.198 604.096 200.505 604.133 200.797C604.169 201.083 604.237 201.336 604.336 201.555C604.44 201.773 604.586 201.945 604.773 202.07C604.961 202.195 605.208 202.258 605.516 202.258ZM614.789 201.984V198.359C614.789 198.104 614.75 197.885 614.672 197.703C614.594 197.521 614.471 197.378 614.305 197.273C614.138 197.169 613.922 197.117 613.656 197.117C613.432 197.117 613.237 197.156 613.07 197.234C612.909 197.312 612.784 197.424 612.695 197.57C612.612 197.716 612.57 197.896 612.57 198.109H610.133C610.133 197.729 610.219 197.375 610.391 197.047C610.562 196.719 610.807 196.43 611.125 196.18C611.448 195.93 611.833 195.737 612.281 195.602C612.729 195.461 613.232 195.391 613.789 195.391C614.451 195.391 615.039 195.503 615.555 195.727C616.076 195.945 616.487 196.276 616.789 196.719C617.091 197.156 617.242 197.708 617.242 198.375V201.914C617.242 202.424 617.271 202.826 617.328 203.117C617.391 203.404 617.479 203.654 617.594 203.867V204H615.133C615.018 203.755 614.932 203.453 614.875 203.094C614.818 202.729 614.789 202.359 614.789 201.984ZM615.094 198.844L615.109 200.188H613.898C613.628 200.188 613.393 200.221 613.195 200.289C613.003 200.357 612.846 200.451 612.727 200.57C612.607 200.685 612.518 200.82 612.461 200.977C612.409 201.128 612.383 201.294 612.383 201.477C612.383 201.648 612.424 201.805 612.508 201.945C612.591 202.081 612.706 202.188 612.852 202.266C612.997 202.344 613.167 202.383 613.359 202.383C613.677 202.383 613.948 202.32 614.172 202.195C614.401 202.07 614.578 201.919 614.703 201.742C614.828 201.56 614.891 201.391 614.891 201.234L615.477 202.25C615.383 202.458 615.268 202.674 615.133 202.898C614.997 203.117 614.826 203.323 614.617 203.516C614.409 203.703 614.156 203.857 613.859 203.977C613.568 204.096 613.216 204.156 612.805 204.156C612.273 204.156 611.792 204.049 611.359 203.836C610.927 203.617 610.581 203.318 610.32 202.938C610.065 202.557 609.938 202.12 609.938 201.625C609.938 201.182 610.018 200.789 610.18 200.445C610.341 200.102 610.583 199.81 610.906 199.57C611.234 199.331 611.646 199.151 612.141 199.031C612.635 198.906 613.214 198.844 613.875 198.844H615.094ZM623.141 195.547V197.258H618.125V195.547H623.141ZM619.273 193.453H621.719V201.352C621.719 201.586 621.747 201.766 621.805 201.891C621.862 202.016 621.956 202.104 622.086 202.156C622.216 202.203 622.383 202.227 622.586 202.227C622.732 202.227 622.857 202.221 622.961 202.211C623.065 202.201 623.161 202.188 623.25 202.172V203.938C623.042 204.005 622.82 204.057 622.586 204.094C622.352 204.135 622.096 204.156 621.82 204.156C621.294 204.156 620.839 204.07 620.453 203.898C620.073 203.727 619.781 203.456 619.578 203.086C619.375 202.711 619.273 202.224 619.273 201.625V193.453ZM626.883 195.547V204H624.438V195.547H626.883ZM624.289 193.359C624.289 193.005 624.414 192.716 624.664 192.492C624.914 192.263 625.242 192.148 625.648 192.148C626.055 192.148 626.383 192.263 626.633 192.492C626.888 192.716 627.016 193.005 627.016 193.359C627.016 193.708 626.888 193.997 626.633 194.227C626.383 194.451 626.055 194.562 625.648 194.562C625.242 194.562 624.914 194.451 624.664 194.227C624.414 193.997 624.289 193.708 624.289 193.359ZM628.289 199.859V199.695C628.289 199.076 628.378 198.505 628.555 197.984C628.732 197.458 628.992 197.003 629.336 196.617C629.68 196.232 630.102 195.932 630.602 195.719C631.102 195.5 631.674 195.391 632.32 195.391C632.977 195.391 633.555 195.5 634.055 195.719C634.56 195.932 634.984 196.232 635.328 196.617C635.672 197.003 635.932 197.458 636.109 197.984C636.286 198.505 636.375 199.076 636.375 199.695V199.859C636.375 200.474 636.286 201.044 636.109 201.57C635.932 202.091 635.672 202.547 635.328 202.938C634.984 203.323 634.562 203.622 634.062 203.836C633.562 204.049 632.987 204.156 632.336 204.156C631.69 204.156 631.115 204.049 630.609 203.836C630.104 203.622 629.68 203.323 629.336 202.938C628.992 202.547 628.732 202.091 628.555 201.57C628.378 201.044 628.289 200.474 628.289 199.859ZM630.734 199.695V199.859C630.734 200.193 630.76 200.505 630.812 200.797C630.87 201.089 630.961 201.344 631.086 201.562C631.211 201.781 631.375 201.953 631.578 202.078C631.786 202.198 632.039 202.258 632.336 202.258C632.633 202.258 632.883 202.198 633.086 202.078C633.289 201.953 633.453 201.781 633.578 201.562C633.703 201.344 633.792 201.089 633.844 200.797C633.901 200.505 633.93 200.193 633.93 199.859V199.695C633.93 199.367 633.901 199.06 633.844 198.773C633.792 198.482 633.703 198.224 633.578 198C633.453 197.776 633.286 197.602 633.078 197.477C632.875 197.352 632.622 197.289 632.32 197.289C632.029 197.289 631.781 197.352 631.578 197.477C631.375 197.602 631.211 197.776 631.086 198C630.961 198.224 630.87 198.482 630.812 198.773C630.76 199.06 630.734 199.367 630.734 199.695ZM640.047 197.352V204H637.602V195.547H639.898L640.047 197.352ZM639.727 199.477L639.117 199.492C639.117 198.857 639.195 198.286 639.352 197.781C639.508 197.276 639.729 196.846 640.016 196.492C640.307 196.133 640.654 195.859 641.055 195.672C641.461 195.484 641.909 195.391 642.398 195.391C642.794 195.391 643.156 195.448 643.484 195.562C643.812 195.677 644.094 195.862 644.328 196.117C644.568 196.367 644.75 196.701 644.875 197.117C645 197.529 645.062 198.036 645.062 198.641V204H642.609V198.633C642.609 198.279 642.56 198.005 642.461 197.812C642.362 197.62 642.216 197.484 642.023 197.406C641.836 197.328 641.607 197.289 641.336 197.289C641.049 197.289 640.805 197.346 640.602 197.461C640.398 197.57 640.232 197.724 640.102 197.922C639.971 198.12 639.875 198.352 639.812 198.617C639.755 198.883 639.727 199.169 639.727 199.477Z" fill="black"/>
<defs>
<filter id="filter0_d_10_260" x="43" y="148" width="165" height="63" filterUnits="userSpaceOnUse" color-interpolation-filters="sRGB">
<feFlood flood-opacity="0" result="BackgroundImageFix"/>
<feColorMatrix in="SourceAlpha" type="matrix" values="0 0 0 0 0 0 0 0 0 0 0 0 0 0 0 0 0 0 127 0" result="hardAlpha"/>
<feOffset dy="4"/>
<feGaussianBlur stdDeviation="2"/>
<feComposite in2="hardAlpha" operator="out"/>
<feColorMatrix type="matrix" values="0 0 0 0 0 0 0 0 0 0 0 0 0 0 0 0 0 0 0.25 0"/>
<feBlend mode="normal" in2="BackgroundImageFix" result="effect1_dropShadow_10_260"/>
<feBlend mode="normal" in="SourceGraphic" in2="effect1_dropShadow_10_260" result="shape"/>
</filter>
<filter id="filter1_d_10_260" x="325" y="148" width="165" height="63" filterUnits="userSpaceOnUse" color-interpolation-filters="sRGB">
<feFlood flood-opacity="0" result="BackgroundImageFix"/>
<feColorMatrix in="SourceAlpha" type="matrix" values="0 0 0 0 0 0 0 0 0 0 0 0 0 0 0 0 0 0 127 0" result="hardAlpha"/>
<feOffset dy="4"/>
<feGaussianBlur stdDeviation="2"/>
<feComposite in2="hardAlpha" operator="out"/>
<feColorMatrix type="matrix" values="0 0 0 0 0 0 0 0 0 0 0 0 0 0 0 0 0 0 0.25 0"/>
<feBlend mode="normal" in2="BackgroundImageFix" result="effect1_dropShadow_10_260"/>
<feBlend mode="normal" in="SourceGraphic" in2="effect1_dropShadow_10_260" result="shape"/>
</filter>
<filter id="filter2_d_10_260" x="600" y="225" width="165" height="63" filterUnits="userSpaceOnUse" color-interpolation-filters="sRGB">
<feFlood flood-opacity="0" result="BackgroundImageFix"/>
<feColorMatrix in="SourceAlpha" type="matrix" values="0 0 0 0 0 0 0 0 0 0 0 0 0 0 0 0 0 0 127 0" result="hardAlpha"/>
<feOffset dy="4"/>
<feGaussianBlur stdDeviation="2"/>
<feComposite in2="hardAlpha" operator="out"/>
<feColorMatrix type="matrix" values="0 0 0 0 0 0 0 0 0 0 0 0 0 0 0 0 0 0 0.25 0"/>
<feBlend mode="normal" in2="BackgroundImageFix" result="effect1_dropShadow_10_260"/>
<feBlend mode="normal" in="SourceGraphic" in2="effect1_dropShadow_10_260" result="shape"/>
</filter>
<filter id="filter3_d_10_260" x="600" y="57" width="165" height="63" filterUnits="userSpaceOnUse" color-interpolation-filters="sRGB">
<feFlood flood-opacity="0" result="BackgroundImageFix"/>
<feColorMatrix in="SourceAlpha" type="matrix" values="0 0 0 0 0 0 0 0 0 0 0 0 0 0 0 0 0 0 127 0" result="hardAlpha"/>
<feOffset dy="4"/>
<feGaussianBlur stdDeviation="2"/>
<feComposite in2="hardAlpha" operator="out"/>
<feColorMatrix type="matrix" values="0 0 0 0 0 0 0 0 0 0 0 0 0 0 0 0 0 0 0.25 0"/>
<feBlend mode="normal" in2="BackgroundImageFix" result="effect1_dropShadow_10_260"/>
<feBlend mode="normal" in="SourceGraphic" in2="effect1_dropShadow_10_260" result="shape"/>
</filter>
</defs>
</svg>
