<svg width="696" height="445" viewBox="0 0 696 445" fill="none" xmlns="http://www.w3.org/2000/svg">
<path d="M696 0H0V444H696V0Z" fill="white"/>
<g style="mix-blend-mode:multiply">
<path fill-rule="evenodd" clip-rule="evenodd" d="M182.03 108C182.03 127.882 198.148 144 218.03 144C237.912 144 254.03 127.882 254.03 108C254.03 88.1177 237.912 72 218.03 72C198.148 72 182.03 88.1177 182.03 108Z" fill="#EAEAEA"/>
<path fill-rule="evenodd" clip-rule="evenodd" d="M327.03 360C327.03 379.882 343.148 396 363.03 396C382.912 396 399.03 379.882 399.03 360C399.03 340.118 382.912 324 363.03 324C343.148 324 327.03 340.118 327.03 360Z" fill="#EAEAEA"/>
<path fill-rule="evenodd" clip-rule="evenodd" d="M472.03 108C472.03 127.882 488.148 144 508.03 144C527.912 144 544.03 127.882 544.03 108C544.03 88.1177 527.912 72 508.03 72C488.148 72 472.03 88.1177 472.03 108Z" fill="#D8CEFF"/>
<path fill-rule="evenodd" clip-rule="evenodd" d="M435.03 191.996C435.03 152.232 402.795 119.996 363.03 119.996C323.266 119.996 291.03 152.232 291.03 191.996C291.03 231.761 323.266 263.996 363.03 263.996C402.794 263.996 435.03 231.761 435.03 191.996Z" fill="#EAEAEA"/>
<path fill-rule="evenodd" clip-rule="evenodd" d="M428.075 161.088C432.534 170.454 435.03 180.936 435.03 192C435.03 229.817 405.874 260.825 368.814 263.771V290.035H375.919L363.027 304L350.134 290.035H357.311V263.776C320.22 260.861 291.03 229.839 291.03 192C291.03 180.905 293.54 170.396 298.022 161.01L275.269 147.873L271.717 154.026L266.069 135.878L284.609 131.696L281.021 137.911L303.795 151.059C316.79 132.292 338.475 120 363.03 120C387.616 120 409.325 132.324 422.314 151.131L445.158 137.942L441.605 131.789L460.146 135.972L454.498 154.119L450.909 147.905L428.075 161.088Z" fill="#EAEAEA"/>
<path d="M324.855 242.107L326.754 235.469H328.881L325.957 244H324.568L324.855 242.107ZM323.127 235.469L325.02 242.107L325.318 244H323.912L321.006 235.469H323.127ZM332.227 244.117C331.723 244.117 331.271 244.037 330.873 243.877C330.475 243.717 330.137 243.496 329.859 243.215C329.586 242.93 329.377 242.602 329.232 242.23C329.088 241.859 329.016 241.463 329.016 241.041V240.818C329.016 240.346 329.082 239.91 329.215 239.512C329.348 239.113 329.541 238.768 329.795 238.475C330.053 238.178 330.369 237.949 330.744 237.789C331.119 237.625 331.547 237.543 332.027 237.543C332.477 237.543 332.877 237.617 333.229 237.766C333.58 237.91 333.877 238.119 334.119 238.393C334.361 238.662 334.545 238.988 334.67 239.371C334.799 239.75 334.863 240.176 334.863 240.648V241.398H329.754V240.221H333.07V240.08C333.07 239.857 333.029 239.662 332.947 239.494C332.869 239.326 332.752 239.197 332.596 239.107C332.443 239.014 332.25 238.967 332.016 238.967C331.793 238.967 331.607 239.014 331.459 239.107C331.311 239.201 331.191 239.334 331.102 239.506C331.016 239.674 330.953 239.871 330.914 240.098C330.875 240.32 330.855 240.561 330.855 240.818V241.041C330.855 241.287 330.889 241.512 330.955 241.715C331.021 241.918 331.119 242.092 331.248 242.236C331.377 242.381 331.533 242.494 331.717 242.576C331.9 242.658 332.109 242.699 332.344 242.699C332.633 242.699 332.908 242.645 333.17 242.535C333.432 242.422 333.658 242.246 333.85 242.008L334.705 242.986C334.576 243.174 334.395 243.355 334.16 243.531C333.93 243.703 333.652 243.844 333.328 243.953C333.004 244.062 332.637 244.117 332.227 244.117ZM338.402 242.693C338.598 242.693 338.768 242.656 338.912 242.582C339.057 242.508 339.168 242.404 339.246 242.271C339.328 242.135 339.369 241.971 339.369 241.779H341.092C341.092 242.24 340.973 242.646 340.734 242.998C340.5 243.35 340.184 243.625 339.785 243.824C339.387 244.02 338.938 244.117 338.438 244.117C337.945 244.117 337.516 244.037 337.148 243.877C336.781 243.713 336.475 243.484 336.229 243.191C335.982 242.898 335.797 242.559 335.672 242.172C335.551 241.781 335.49 241.359 335.49 240.906V240.754C335.49 240.305 335.551 239.885 335.672 239.494C335.797 239.104 335.982 238.762 336.229 238.469C336.475 238.176 336.779 237.949 337.143 237.789C337.51 237.625 337.939 237.543 338.432 237.543C338.951 237.543 339.41 237.643 339.809 237.842C340.211 238.041 340.525 238.328 340.752 238.703C340.979 239.074 341.092 239.521 341.092 240.045H339.369C339.369 239.842 339.332 239.66 339.258 239.5C339.188 239.336 339.078 239.207 338.93 239.113C338.785 239.016 338.605 238.967 338.391 238.967C338.168 238.967 337.984 239.016 337.84 239.113C337.699 239.207 337.592 239.338 337.518 239.506C337.443 239.674 337.393 239.865 337.365 240.08C337.338 240.291 337.324 240.516 337.324 240.754V240.906C337.324 241.148 337.338 241.379 337.365 241.598C337.393 241.812 337.443 242.002 337.518 242.166C337.596 242.33 337.705 242.459 337.846 242.553C337.986 242.646 338.172 242.693 338.402 242.693ZM345.223 237.66V238.943H341.461V237.66H345.223ZM342.322 236.09H344.156V242.014C344.156 242.189 344.178 242.324 344.221 242.418C344.264 242.512 344.334 242.578 344.432 242.617C344.529 242.652 344.654 242.67 344.807 242.67C344.916 242.67 345.01 242.666 345.088 242.658C345.166 242.65 345.238 242.641 345.305 242.629V243.953C345.148 244.004 344.982 244.043 344.807 244.07C344.631 244.102 344.439 244.117 344.232 244.117C343.838 244.117 343.496 244.053 343.207 243.924C342.922 243.795 342.703 243.592 342.551 243.314C342.398 243.033 342.322 242.668 342.322 242.219V236.09ZM345.674 240.895V240.771C345.674 240.307 345.74 239.879 345.873 239.488C346.006 239.094 346.201 238.752 346.459 238.463C346.717 238.174 347.033 237.949 347.408 237.789C347.783 237.625 348.213 237.543 348.697 237.543C349.189 237.543 349.623 237.625 349.998 237.789C350.377 237.949 350.695 238.174 350.953 238.463C351.211 238.752 351.406 239.094 351.539 239.488C351.672 239.879 351.738 240.307 351.738 240.771V240.895C351.738 241.355 351.672 241.783 351.539 242.178C351.406 242.568 351.211 242.91 350.953 243.203C350.695 243.492 350.379 243.717 350.004 243.877C349.629 244.037 349.197 244.117 348.709 244.117C348.225 244.117 347.793 244.037 347.414 243.877C347.035 243.717 346.717 243.492 346.459 243.203C346.201 242.91 346.006 242.568 345.873 242.178C345.74 241.783 345.674 241.355 345.674 240.895ZM347.508 240.771V240.895C347.508 241.145 347.527 241.379 347.566 241.598C347.609 241.816 347.678 242.008 347.771 242.172C347.865 242.336 347.988 242.465 348.141 242.559C348.297 242.648 348.486 242.693 348.709 242.693C348.932 242.693 349.119 242.648 349.271 242.559C349.424 242.465 349.547 242.336 349.641 242.172C349.734 242.008 349.801 241.816 349.84 241.598C349.883 241.379 349.904 241.145 349.904 240.895V240.771C349.904 240.525 349.883 240.295 349.84 240.08C349.801 239.861 349.734 239.668 349.641 239.5C349.547 239.332 349.422 239.201 349.266 239.107C349.113 239.014 348.924 238.967 348.697 238.967C348.479 238.967 348.293 239.014 348.141 239.107C347.988 239.201 347.865 239.332 347.771 239.5C347.678 239.668 347.609 239.861 347.566 240.08C347.527 240.295 347.508 240.525 347.508 240.771ZM354.533 239.137V244H352.705V237.66H354.422L354.533 239.137ZM356.426 237.613L356.396 239.318C356.318 239.307 356.217 239.297 356.092 239.289C355.967 239.277 355.859 239.271 355.77 239.271C355.535 239.271 355.332 239.301 355.16 239.359C354.992 239.414 354.852 239.496 354.738 239.605C354.629 239.715 354.547 239.852 354.492 240.016C354.438 240.176 354.41 240.361 354.41 240.572L354.064 240.402C354.064 239.984 354.105 239.602 354.188 239.254C354.27 238.906 354.389 238.605 354.545 238.352C354.701 238.094 354.893 237.895 355.119 237.754C355.346 237.613 355.604 237.543 355.893 237.543C355.986 237.543 356.082 237.549 356.18 237.561C356.277 237.572 356.359 237.59 356.426 237.613ZM362.959 244H361.084L361.096 242.523H362.959C363.385 242.523 363.744 242.426 364.037 242.23C364.33 242.031 364.553 241.738 364.705 241.352C364.857 240.961 364.934 240.486 364.934 239.928V239.535C364.934 239.113 364.891 238.742 364.805 238.422C364.719 238.098 364.592 237.826 364.424 237.607C364.256 237.389 364.047 237.225 363.797 237.115C363.551 237.006 363.268 236.951 362.947 236.951H361.049V235.469H362.947C363.525 235.469 364.053 235.566 364.529 235.762C365.01 235.957 365.424 236.236 365.771 236.6C366.123 236.963 366.395 237.393 366.586 237.889C366.777 238.385 366.873 238.938 366.873 239.547V239.928C366.873 240.533 366.777 241.086 366.586 241.586C366.395 242.082 366.123 242.512 365.771 242.875C365.424 243.234 365.012 243.512 364.535 243.707C364.059 243.902 363.533 244 362.959 244ZM362.168 235.469V244H360.258V235.469H362.168ZM371.303 242.488V239.77C371.303 239.578 371.273 239.414 371.215 239.277C371.156 239.141 371.064 239.033 370.939 238.955C370.814 238.877 370.652 238.838 370.453 238.838C370.285 238.838 370.139 238.867 370.014 238.926C369.893 238.984 369.799 239.068 369.732 239.178C369.67 239.287 369.639 239.422 369.639 239.582H367.811C367.811 239.297 367.875 239.031 368.004 238.785C368.133 238.539 368.316 238.322 368.555 238.135C368.797 237.947 369.086 237.803 369.422 237.701C369.758 237.596 370.135 237.543 370.553 237.543C371.049 237.543 371.49 237.627 371.877 237.795C372.268 237.959 372.576 238.207 372.803 238.539C373.029 238.867 373.143 239.281 373.143 239.781V242.436C373.143 242.818 373.164 243.119 373.207 243.338C373.254 243.553 373.32 243.74 373.406 243.9V244H371.561C371.475 243.816 371.41 243.59 371.367 243.32C371.324 243.047 371.303 242.77 371.303 242.488ZM371.531 240.133L371.543 241.141H370.635C370.432 241.141 370.256 241.166 370.107 241.217C369.963 241.268 369.846 241.338 369.756 241.428C369.666 241.514 369.6 241.615 369.557 241.732C369.518 241.846 369.498 241.971 369.498 242.107C369.498 242.236 369.529 242.354 369.592 242.459C369.654 242.561 369.74 242.641 369.85 242.699C369.959 242.758 370.086 242.787 370.23 242.787C370.469 242.787 370.672 242.74 370.84 242.646C371.012 242.553 371.145 242.439 371.238 242.307C371.332 242.17 371.379 242.043 371.379 241.926L371.818 242.688C371.748 242.844 371.662 243.006 371.561 243.174C371.459 243.338 371.33 243.492 371.174 243.637C371.018 243.777 370.828 243.893 370.605 243.982C370.387 244.072 370.123 244.117 369.814 244.117C369.416 244.117 369.055 244.037 368.73 243.877C368.406 243.713 368.146 243.488 367.951 243.203C367.76 242.918 367.664 242.59 367.664 242.219C367.664 241.887 367.725 241.592 367.846 241.334C367.967 241.076 368.148 240.857 368.391 240.678C368.637 240.498 368.945 240.363 369.316 240.273C369.688 240.18 370.121 240.133 370.617 240.133H371.531ZM377.566 237.66V238.943H373.805V237.66H377.566ZM374.666 236.09H376.5V242.014C376.5 242.189 376.521 242.324 376.564 242.418C376.607 242.512 376.678 242.578 376.775 242.617C376.873 242.652 376.998 242.67 377.15 242.67C377.26 242.67 377.354 242.666 377.432 242.658C377.51 242.65 377.582 242.641 377.648 242.629V243.953C377.492 244.004 377.326 244.043 377.15 244.07C376.975 244.102 376.783 244.117 376.576 244.117C376.182 244.117 375.84 244.053 375.551 243.924C375.266 243.795 375.047 243.592 374.895 243.314C374.742 243.033 374.666 242.668 374.666 242.219V236.09ZM381.803 242.488V239.77C381.803 239.578 381.773 239.414 381.715 239.277C381.656 239.141 381.564 239.033 381.439 238.955C381.314 238.877 381.152 238.838 380.953 238.838C380.785 238.838 380.639 238.867 380.514 238.926C380.393 238.984 380.299 239.068 380.232 239.178C380.17 239.287 380.139 239.422 380.139 239.582H378.311C378.311 239.297 378.375 239.031 378.504 238.785C378.633 238.539 378.816 238.322 379.055 238.135C379.297 237.947 379.586 237.803 379.922 237.701C380.258 237.596 380.635 237.543 381.053 237.543C381.549 237.543 381.99 237.627 382.377 237.795C382.768 237.959 383.076 238.207 383.303 238.539C383.529 238.867 383.643 239.281 383.643 239.781V242.436C383.643 242.818 383.664 243.119 383.707 243.338C383.754 243.553 383.82 243.74 383.906 243.9V244H382.061C381.975 243.816 381.91 243.59 381.867 243.32C381.824 243.047 381.803 242.77 381.803 242.488ZM382.031 240.133L382.043 241.141H381.135C380.932 241.141 380.756 241.166 380.607 241.217C380.463 241.268 380.346 241.338 380.256 241.428C380.166 241.514 380.1 241.615 380.057 241.732C380.018 241.846 379.998 241.971 379.998 242.107C379.998 242.236 380.029 242.354 380.092 242.459C380.154 242.561 380.24 242.641 380.35 242.699C380.459 242.758 380.586 242.787 380.73 242.787C380.969 242.787 381.172 242.74 381.34 242.646C381.512 242.553 381.645 242.439 381.738 242.307C381.832 242.17 381.879 242.043 381.879 241.926L382.318 242.688C382.248 242.844 382.162 243.006 382.061 243.174C381.959 243.338 381.83 243.492 381.674 243.637C381.518 243.777 381.328 243.893 381.105 243.982C380.887 244.072 380.623 244.117 380.314 244.117C379.916 244.117 379.555 244.037 379.23 243.877C378.906 243.713 378.646 243.488 378.451 243.203C378.26 242.918 378.164 242.59 378.164 242.219C378.164 241.887 378.225 241.592 378.346 241.334C378.467 241.076 378.648 240.857 378.891 240.678C379.137 240.498 379.445 240.363 379.816 240.273C380.188 240.18 380.621 240.133 381.117 240.133H382.031ZM384.85 235H386.678V242.494L386.49 244H384.85V235ZM390.633 240.76V240.883C390.633 241.363 390.582 241.801 390.48 242.195C390.383 242.59 390.232 242.932 390.029 243.221C389.826 243.506 389.57 243.727 389.262 243.883C388.953 244.039 388.59 244.117 388.172 244.117C387.785 244.117 387.453 244.037 387.176 243.877C386.898 243.713 386.666 243.486 386.479 243.197C386.291 242.908 386.139 242.57 386.021 242.184C385.908 241.797 385.82 241.381 385.758 240.936V240.725C385.82 240.279 385.908 239.863 386.021 239.477C386.139 239.09 386.291 238.752 386.479 238.463C386.666 238.174 386.896 237.949 387.17 237.789C387.447 237.625 387.777 237.543 388.16 237.543C388.582 237.543 388.947 237.623 389.256 237.783C389.568 237.943 389.826 238.168 390.029 238.457C390.232 238.742 390.383 239.082 390.48 239.477C390.582 239.867 390.633 240.295 390.633 240.76ZM388.805 240.883V240.76C388.805 240.518 388.787 240.289 388.752 240.074C388.721 239.859 388.664 239.67 388.582 239.506C388.504 239.338 388.393 239.207 388.248 239.113C388.107 239.016 387.926 238.967 387.703 238.967C387.484 238.967 387.299 239.004 387.146 239.078C386.994 239.152 386.871 239.258 386.777 239.395C386.684 239.527 386.615 239.689 386.572 239.881C386.529 240.072 386.506 240.285 386.502 240.52V241.141C386.506 241.453 386.547 241.727 386.625 241.961C386.703 242.195 386.83 242.377 387.006 242.506C387.182 242.631 387.418 242.693 387.715 242.693C387.941 242.693 388.125 242.65 388.266 242.564C388.41 242.475 388.52 242.35 388.594 242.189C388.672 242.029 388.727 241.838 388.758 241.615C388.789 241.393 388.805 241.148 388.805 240.883ZM394.963 242.488V239.77C394.963 239.578 394.934 239.414 394.875 239.277C394.816 239.141 394.725 239.033 394.6 238.955C394.475 238.877 394.312 238.838 394.113 238.838C393.945 238.838 393.799 238.867 393.674 238.926C393.553 238.984 393.459 239.068 393.393 239.178C393.33 239.287 393.299 239.422 393.299 239.582H391.471C391.471 239.297 391.535 239.031 391.664 238.785C391.793 238.539 391.977 238.322 392.215 238.135C392.457 237.947 392.746 237.803 393.082 237.701C393.418 237.596 393.795 237.543 394.213 237.543C394.709 237.543 395.15 237.627 395.537 237.795C395.928 237.959 396.236 238.207 396.463 238.539C396.689 238.867 396.803 239.281 396.803 239.781V242.436C396.803 242.818 396.824 243.119 396.867 243.338C396.914 243.553 396.98 243.74 397.066 243.9V244H395.221C395.135 243.816 395.07 243.59 395.027 243.32C394.984 243.047 394.963 242.77 394.963 242.488ZM395.191 240.133L395.203 241.141H394.295C394.092 241.141 393.916 241.166 393.768 241.217C393.623 241.268 393.506 241.338 393.416 241.428C393.326 241.514 393.26 241.615 393.217 241.732C393.178 241.846 393.158 241.971 393.158 242.107C393.158 242.236 393.189 242.354 393.252 242.459C393.314 242.561 393.4 242.641 393.51 242.699C393.619 242.758 393.746 242.787 393.891 242.787C394.129 242.787 394.332 242.74 394.5 242.646C394.672 242.553 394.805 242.439 394.898 242.307C394.992 242.17 395.039 242.043 395.039 241.926L395.479 242.688C395.408 242.844 395.322 243.006 395.221 243.174C395.119 243.338 394.99 243.492 394.834 243.637C394.678 243.777 394.488 243.893 394.266 243.982C394.047 244.072 393.783 244.117 393.475 244.117C393.076 244.117 392.715 244.037 392.391 243.877C392.066 243.713 391.807 243.488 391.611 243.203C391.42 242.918 391.324 242.59 391.324 242.219C391.324 241.887 391.385 241.592 391.506 241.334C391.627 241.076 391.809 240.857 392.051 240.678C392.297 240.498 392.605 240.363 392.977 240.273C393.348 240.18 393.781 240.133 394.277 240.133H395.191ZM401.379 242.236C401.379 242.119 401.342 242.016 401.268 241.926C401.197 241.836 401.068 241.754 400.881 241.68C400.697 241.605 400.438 241.531 400.102 241.457C399.785 241.391 399.49 241.305 399.217 241.199C398.943 241.09 398.705 240.959 398.502 240.807C398.299 240.65 398.141 240.467 398.027 240.256C397.914 240.041 397.857 239.797 397.857 239.523C397.857 239.258 397.914 239.006 398.027 238.768C398.145 238.529 398.312 238.318 398.531 238.135C398.754 237.951 399.023 237.807 399.34 237.701C399.66 237.596 400.023 237.543 400.43 237.543C400.988 237.543 401.471 237.631 401.877 237.807C402.283 237.979 402.596 238.221 402.814 238.533C403.033 238.842 403.143 239.195 403.143 239.594H401.314C401.314 239.43 401.283 239.287 401.221 239.166C401.158 239.045 401.062 238.951 400.934 238.885C400.805 238.814 400.635 238.779 400.424 238.779C400.26 238.779 400.115 238.809 399.99 238.867C399.869 238.922 399.773 238.998 399.703 239.096C399.637 239.193 399.604 239.307 399.604 239.436C399.604 239.525 399.623 239.607 399.662 239.682C399.705 239.752 399.77 239.818 399.855 239.881C399.945 239.939 400.061 239.992 400.201 240.039C400.346 240.086 400.521 240.131 400.729 240.174C401.17 240.256 401.572 240.371 401.936 240.52C402.303 240.668 402.596 240.873 402.814 241.135C403.037 241.396 403.148 241.742 403.148 242.172C403.148 242.453 403.084 242.711 402.955 242.945C402.83 243.18 402.648 243.385 402.41 243.561C402.172 243.736 401.887 243.873 401.555 243.971C401.223 244.068 400.848 244.117 400.43 244.117C399.832 244.117 399.326 244.01 398.912 243.795C398.498 243.58 398.186 243.311 397.975 242.986C397.768 242.658 397.664 242.322 397.664 241.979H399.381C399.389 242.189 399.441 242.361 399.539 242.494C399.641 242.627 399.771 242.725 399.932 242.787C400.092 242.846 400.271 242.875 400.471 242.875C400.67 242.875 400.836 242.848 400.969 242.793C401.102 242.738 401.203 242.664 401.273 242.57C401.344 242.473 401.379 242.361 401.379 242.236ZM407.156 244.117C406.652 244.117 406.201 244.037 405.803 243.877C405.404 243.717 405.066 243.496 404.789 243.215C404.516 242.93 404.307 242.602 404.162 242.23C404.018 241.859 403.945 241.463 403.945 241.041V240.818C403.945 240.346 404.012 239.91 404.145 239.512C404.277 239.113 404.471 238.768 404.725 238.475C404.982 238.178 405.299 237.949 405.674 237.789C406.049 237.625 406.477 237.543 406.957 237.543C407.406 237.543 407.807 237.617 408.158 237.766C408.51 237.91 408.807 238.119 409.049 238.393C409.291 238.662 409.475 238.988 409.6 239.371C409.729 239.75 409.793 240.176 409.793 240.648V241.398H404.684V240.221H408V240.08C408 239.857 407.959 239.662 407.877 239.494C407.799 239.326 407.682 239.197 407.525 239.107C407.373 239.014 407.18 238.967 406.945 238.967C406.723 238.967 406.537 239.014 406.389 239.107C406.24 239.201 406.121 239.334 406.031 239.506C405.945 239.674 405.883 239.871 405.844 240.098C405.805 240.32 405.785 240.561 405.785 240.818V241.041C405.785 241.287 405.818 241.512 405.885 241.715C405.951 241.918 406.049 242.092 406.178 242.236C406.307 242.381 406.463 242.494 406.646 242.576C406.83 242.658 407.039 242.699 407.273 242.699C407.562 242.699 407.838 242.645 408.1 242.535C408.361 242.422 408.588 242.246 408.779 242.008L409.635 242.986C409.506 243.174 409.324 243.355 409.09 243.531C408.859 243.703 408.582 243.844 408.258 243.953C407.934 244.062 407.566 244.117 407.156 244.117Z" fill="#3F3C3C"/>
<path d="M101.012 106.469V115H99.1074V106.469H101.012ZM104.293 109.99V115H102.465V108.66H104.182L104.293 109.99ZM104.059 111.607L103.596 111.619C103.596 111.174 103.648 110.766 103.754 110.395C103.863 110.02 104.021 109.693 104.229 109.416C104.436 109.139 104.691 108.924 104.996 108.771C105.305 108.619 105.66 108.543 106.062 108.543C106.344 108.543 106.6 108.586 106.83 108.672C107.061 108.754 107.258 108.885 107.422 109.064C107.59 109.24 107.719 109.471 107.809 109.756C107.898 110.037 107.943 110.375 107.943 110.77V115H106.115V110.992C106.115 110.711 106.08 110.498 106.01 110.354C105.943 110.205 105.846 110.104 105.717 110.049C105.588 109.994 105.434 109.967 105.254 109.967C105.059 109.967 104.885 110.01 104.732 110.096C104.584 110.178 104.459 110.293 104.357 110.441C104.256 110.59 104.18 110.764 104.129 110.963C104.082 111.162 104.059 111.377 104.059 111.607ZM107.756 111.514L107.176 111.561C107.176 111.131 107.227 110.732 107.328 110.365C107.43 109.998 107.582 109.68 107.785 109.41C107.988 109.137 108.24 108.924 108.541 108.771C108.846 108.619 109.199 108.543 109.602 108.543C109.898 108.543 110.168 108.586 110.41 108.672C110.656 108.758 110.867 108.896 111.043 109.088C111.223 109.279 111.361 109.531 111.459 109.844C111.557 110.152 111.605 110.531 111.605 110.98V115H109.766V110.98C109.766 110.703 109.73 110.492 109.66 110.348C109.594 110.203 109.496 110.104 109.367 110.049C109.242 109.994 109.092 109.967 108.916 109.967C108.721 109.967 108.551 110.008 108.406 110.09C108.262 110.168 108.141 110.277 108.043 110.418C107.945 110.555 107.873 110.717 107.826 110.904C107.779 111.092 107.756 111.295 107.756 111.514ZM116.188 113.488V110.77C116.188 110.578 116.158 110.414 116.1 110.277C116.041 110.141 115.949 110.033 115.824 109.955C115.699 109.877 115.537 109.838 115.338 109.838C115.17 109.838 115.023 109.867 114.898 109.926C114.777 109.984 114.684 110.068 114.617 110.178C114.555 110.287 114.523 110.422 114.523 110.582H112.695C112.695 110.297 112.76 110.031 112.889 109.785C113.018 109.539 113.201 109.322 113.439 109.135C113.682 108.947 113.971 108.803 114.307 108.701C114.643 108.596 115.02 108.543 115.438 108.543C115.934 108.543 116.375 108.627 116.762 108.795C117.152 108.959 117.461 109.207 117.688 109.539C117.914 109.867 118.027 110.281 118.027 110.781V113.436C118.027 113.818 118.049 114.119 118.092 114.338C118.139 114.553 118.205 114.74 118.291 114.9V115H116.445C116.359 114.816 116.295 114.59 116.252 114.32C116.209 114.047 116.188 113.77 116.188 113.488ZM116.416 111.133L116.428 112.141H115.52C115.316 112.141 115.141 112.166 114.992 112.217C114.848 112.268 114.73 112.338 114.641 112.428C114.551 112.514 114.484 112.615 114.441 112.732C114.402 112.846 114.383 112.971 114.383 113.107C114.383 113.236 114.414 113.354 114.477 113.459C114.539 113.561 114.625 113.641 114.734 113.699C114.844 113.758 114.971 113.787 115.115 113.787C115.354 113.787 115.557 113.74 115.725 113.646C115.896 113.553 116.029 113.439 116.123 113.307C116.217 113.17 116.264 113.043 116.264 112.926L116.703 113.688C116.633 113.844 116.547 114.006 116.445 114.174C116.344 114.338 116.215 114.492 116.059 114.637C115.902 114.777 115.713 114.893 115.49 114.982C115.271 115.072 115.008 115.117 114.699 115.117C114.301 115.117 113.939 115.037 113.615 114.877C113.291 114.713 113.031 114.488 112.836 114.203C112.645 113.918 112.549 113.59 112.549 113.219C112.549 112.887 112.609 112.592 112.73 112.334C112.852 112.076 113.033 111.857 113.275 111.678C113.521 111.498 113.83 111.363 114.201 111.273C114.572 111.18 115.006 111.133 115.502 111.133H116.416ZM123.225 108.66H124.889V114.771C124.889 115.354 124.756 115.848 124.49 116.254C124.229 116.66 123.863 116.969 123.395 117.18C122.926 117.391 122.377 117.496 121.748 117.496C121.475 117.496 121.189 117.459 120.893 117.385C120.596 117.314 120.316 117.207 120.055 117.062C119.793 116.922 119.574 116.742 119.398 116.523L120.178 115.445C120.357 115.648 120.572 115.812 120.822 115.938C121.072 116.066 121.357 116.131 121.678 116.131C121.971 116.131 122.219 116.078 122.422 115.973C122.625 115.867 122.779 115.713 122.885 115.51C122.994 115.307 123.049 115.061 123.049 114.771V110.143L123.225 108.66ZM118.988 111.906V111.783C118.988 111.303 119.047 110.865 119.164 110.471C119.281 110.072 119.451 109.73 119.674 109.445C119.9 109.156 120.172 108.934 120.488 108.777C120.809 108.621 121.168 108.543 121.566 108.543C121.996 108.543 122.352 108.625 122.633 108.789C122.914 108.949 123.143 109.176 123.318 109.469C123.494 109.758 123.633 110.1 123.734 110.494C123.836 110.885 123.918 111.309 123.98 111.766V111.977C123.918 112.414 123.828 112.822 123.711 113.201C123.594 113.58 123.441 113.914 123.254 114.203C123.066 114.488 122.832 114.713 122.551 114.877C122.273 115.037 121.941 115.117 121.555 115.117C121.16 115.117 120.805 115.037 120.488 114.877C120.172 114.717 119.9 114.492 119.674 114.203C119.451 113.914 119.281 113.574 119.164 113.184C119.047 112.793 118.988 112.367 118.988 111.906ZM120.816 111.783V111.906C120.816 112.156 120.84 112.389 120.887 112.604C120.938 112.818 121.012 113.008 121.109 113.172C121.211 113.336 121.336 113.465 121.484 113.559C121.637 113.648 121.814 113.693 122.018 113.693C122.314 113.693 122.555 113.631 122.738 113.506C122.926 113.377 123.062 113.199 123.148 112.973C123.238 112.746 123.285 112.482 123.289 112.182V111.566C123.289 111.316 123.264 111.092 123.213 110.893C123.162 110.693 123.086 110.525 122.984 110.389C122.887 110.252 122.758 110.148 122.598 110.078C122.441 110.004 122.252 109.967 122.029 109.967C121.83 109.967 121.654 110.014 121.502 110.107C121.35 110.197 121.223 110.324 121.121 110.488C121.02 110.652 120.943 110.846 120.893 111.068C120.842 111.287 120.816 111.525 120.816 111.783ZM129.096 115.117C128.592 115.117 128.141 115.037 127.742 114.877C127.344 114.717 127.006 114.496 126.729 114.215C126.455 113.93 126.246 113.602 126.102 113.23C125.957 112.859 125.885 112.463 125.885 112.041V111.818C125.885 111.346 125.951 110.91 126.084 110.512C126.217 110.113 126.41 109.768 126.664 109.475C126.922 109.178 127.238 108.949 127.613 108.789C127.988 108.625 128.416 108.543 128.896 108.543C129.346 108.543 129.746 108.617 130.098 108.766C130.449 108.91 130.746 109.119 130.988 109.393C131.23 109.662 131.414 109.988 131.539 110.371C131.668 110.75 131.732 111.176 131.732 111.648V112.398H126.623V111.221H129.939V111.08C129.939 110.857 129.898 110.662 129.816 110.494C129.738 110.326 129.621 110.197 129.465 110.107C129.312 110.014 129.119 109.967 128.885 109.967C128.662 109.967 128.477 110.014 128.328 110.107C128.18 110.201 128.061 110.334 127.971 110.506C127.885 110.674 127.822 110.871 127.783 111.098C127.744 111.32 127.725 111.561 127.725 111.818V112.041C127.725 112.287 127.758 112.512 127.824 112.715C127.891 112.918 127.988 113.092 128.117 113.236C128.246 113.381 128.402 113.494 128.586 113.576C128.77 113.658 128.979 113.699 129.213 113.699C129.502 113.699 129.777 113.645 130.039 113.535C130.301 113.422 130.527 113.246 130.719 113.008L131.574 113.986C131.445 114.174 131.264 114.355 131.029 114.531C130.799 114.703 130.521 114.844 130.197 114.953C129.873 115.062 129.506 115.117 129.096 115.117ZM140.129 112.75C140.129 112.605 140.107 112.477 140.064 112.363C140.021 112.246 139.943 112.139 139.83 112.041C139.717 111.943 139.557 111.846 139.35 111.748C139.143 111.646 138.871 111.543 138.535 111.438C138.152 111.312 137.787 111.172 137.439 111.016C137.096 110.855 136.789 110.67 136.52 110.459C136.25 110.248 136.037 110.002 135.881 109.721C135.729 109.439 135.652 109.111 135.652 108.736C135.652 108.373 135.732 108.045 135.893 107.752C136.053 107.459 136.277 107.209 136.566 107.002C136.855 106.791 137.195 106.631 137.586 106.521C137.977 106.408 138.406 106.352 138.875 106.352C139.5 106.352 140.049 106.463 140.521 106.686C140.998 106.904 141.369 107.213 141.635 107.611C141.9 108.006 142.033 108.465 142.033 108.988H140.135C140.135 108.758 140.086 108.555 139.988 108.379C139.895 108.199 139.75 108.059 139.555 107.957C139.363 107.855 139.123 107.805 138.834 107.805C138.553 107.805 138.316 107.848 138.125 107.934C137.938 108.016 137.795 108.129 137.697 108.273C137.604 108.418 137.557 108.576 137.557 108.748C137.557 108.885 137.592 109.01 137.662 109.123C137.736 109.232 137.842 109.336 137.979 109.434C138.119 109.527 138.291 109.617 138.494 109.703C138.697 109.789 138.93 109.871 139.191 109.949C139.648 110.094 140.053 110.254 140.404 110.43C140.76 110.605 141.059 110.805 141.301 111.027C141.543 111.25 141.725 111.502 141.846 111.783C141.971 112.064 142.033 112.383 142.033 112.738C142.033 113.117 141.959 113.453 141.811 113.746C141.666 114.039 141.455 114.289 141.178 114.496C140.904 114.699 140.576 114.854 140.193 114.959C139.811 115.064 139.383 115.117 138.91 115.117C138.48 115.117 138.057 115.062 137.639 114.953C137.221 114.84 136.842 114.668 136.502 114.438C136.166 114.207 135.896 113.914 135.693 113.559C135.494 113.199 135.395 112.773 135.395 112.281H137.305C137.305 112.539 137.342 112.758 137.416 112.938C137.49 113.113 137.596 113.256 137.732 113.365C137.873 113.475 138.043 113.553 138.242 113.6C138.441 113.646 138.664 113.67 138.91 113.67C139.195 113.67 139.426 113.631 139.602 113.553C139.781 113.471 139.914 113.359 140 113.219C140.086 113.078 140.129 112.922 140.129 112.75ZM146.053 115.117C145.549 115.117 145.098 115.037 144.699 114.877C144.301 114.717 143.963 114.496 143.686 114.215C143.412 113.93 143.203 113.602 143.059 113.23C142.914 112.859 142.842 112.463 142.842 112.041V111.818C142.842 111.346 142.908 110.91 143.041 110.512C143.174 110.113 143.367 109.768 143.621 109.475C143.879 109.178 144.195 108.949 144.57 108.789C144.945 108.625 145.373 108.543 145.854 108.543C146.303 108.543 146.703 108.617 147.055 108.766C147.406 108.91 147.703 109.119 147.945 109.393C148.188 109.662 148.371 109.988 148.496 110.371C148.625 110.75 148.689 111.176 148.689 111.648V112.398H143.58V111.221H146.896V111.08C146.896 110.857 146.855 110.662 146.773 110.494C146.695 110.326 146.578 110.197 146.422 110.107C146.27 110.014 146.076 109.967 145.842 109.967C145.619 109.967 145.434 110.014 145.285 110.107C145.137 110.201 145.018 110.334 144.928 110.506C144.842 110.674 144.779 110.871 144.74 111.098C144.701 111.32 144.682 111.561 144.682 111.818V112.041C144.682 112.287 144.715 112.512 144.781 112.715C144.848 112.918 144.945 113.092 145.074 113.236C145.203 113.381 145.359 113.494 145.543 113.576C145.727 113.658 145.936 113.699 146.17 113.699C146.459 113.699 146.734 113.645 146.996 113.535C147.258 113.422 147.484 113.246 147.676 113.008L148.531 113.986C148.402 114.174 148.221 114.355 147.986 114.531C147.756 114.703 147.479 114.844 147.154 114.953C146.83 115.062 146.463 115.117 146.053 115.117ZM152.938 113.488V110.77C152.938 110.578 152.908 110.414 152.85 110.277C152.791 110.141 152.699 110.033 152.574 109.955C152.449 109.877 152.287 109.838 152.088 109.838C151.92 109.838 151.773 109.867 151.648 109.926C151.527 109.984 151.434 110.068 151.367 110.178C151.305 110.287 151.273 110.422 151.273 110.582H149.445C149.445 110.297 149.51 110.031 149.639 109.785C149.768 109.539 149.951 109.322 150.189 109.135C150.432 108.947 150.721 108.803 151.057 108.701C151.393 108.596 151.77 108.543 152.188 108.543C152.684 108.543 153.125 108.627 153.512 108.795C153.902 108.959 154.211 109.207 154.438 109.539C154.664 109.867 154.777 110.281 154.777 110.781V113.436C154.777 113.818 154.799 114.119 154.842 114.338C154.889 114.553 154.955 114.74 155.041 114.9V115H153.195C153.109 114.816 153.045 114.59 153.002 114.32C152.959 114.047 152.938 113.77 152.938 113.488ZM153.166 111.133L153.178 112.141H152.27C152.066 112.141 151.891 112.166 151.742 112.217C151.598 112.268 151.48 112.338 151.391 112.428C151.301 112.514 151.234 112.615 151.191 112.732C151.152 112.846 151.133 112.971 151.133 113.107C151.133 113.236 151.164 113.354 151.227 113.459C151.289 113.561 151.375 113.641 151.484 113.699C151.594 113.758 151.721 113.787 151.865 113.787C152.104 113.787 152.307 113.74 152.475 113.646C152.646 113.553 152.779 113.439 152.873 113.307C152.967 113.17 153.014 113.043 153.014 112.926L153.453 113.688C153.383 113.844 153.297 114.006 153.195 114.174C153.094 114.338 152.965 114.492 152.809 114.637C152.652 114.777 152.463 114.893 152.24 114.982C152.021 115.072 151.758 115.117 151.449 115.117C151.051 115.117 150.689 115.037 150.365 114.877C150.041 114.713 149.781 114.488 149.586 114.203C149.395 113.918 149.299 113.59 149.299 113.219C149.299 112.887 149.359 112.592 149.48 112.334C149.602 112.076 149.783 111.857 150.025 111.678C150.271 111.498 150.58 111.363 150.951 111.273C151.322 111.18 151.756 111.133 152.252 111.133H153.166ZM157.812 110.137V115H155.984V108.66H157.701L157.812 110.137ZM159.705 108.613L159.676 110.318C159.598 110.307 159.496 110.297 159.371 110.289C159.246 110.277 159.139 110.271 159.049 110.271C158.814 110.271 158.611 110.301 158.439 110.359C158.271 110.414 158.131 110.496 158.018 110.605C157.908 110.715 157.826 110.852 157.771 111.016C157.717 111.176 157.689 111.361 157.689 111.572L157.344 111.402C157.344 110.984 157.385 110.602 157.467 110.254C157.549 109.906 157.668 109.605 157.824 109.352C157.98 109.094 158.172 108.895 158.398 108.754C158.625 108.613 158.883 108.543 159.172 108.543C159.266 108.543 159.361 108.549 159.459 108.561C159.557 108.572 159.639 108.59 159.705 108.613ZM162.986 113.693C163.182 113.693 163.352 113.656 163.496 113.582C163.641 113.508 163.752 113.404 163.83 113.271C163.912 113.135 163.953 112.971 163.953 112.779H165.676C165.676 113.24 165.557 113.646 165.318 113.998C165.084 114.35 164.768 114.625 164.369 114.824C163.971 115.02 163.521 115.117 163.021 115.117C162.529 115.117 162.1 115.037 161.732 114.877C161.365 114.713 161.059 114.484 160.812 114.191C160.566 113.898 160.381 113.559 160.256 113.172C160.135 112.781 160.074 112.359 160.074 111.906V111.754C160.074 111.305 160.135 110.885 160.256 110.494C160.381 110.104 160.566 109.762 160.812 109.469C161.059 109.176 161.363 108.949 161.727 108.789C162.094 108.625 162.523 108.543 163.016 108.543C163.535 108.543 163.994 108.643 164.393 108.842C164.795 109.041 165.109 109.328 165.336 109.703C165.562 110.074 165.676 110.521 165.676 111.045H163.953C163.953 110.842 163.916 110.66 163.842 110.5C163.771 110.336 163.662 110.207 163.514 110.113C163.369 110.016 163.189 109.967 162.975 109.967C162.752 109.967 162.568 110.016 162.424 110.113C162.283 110.207 162.176 110.338 162.102 110.506C162.027 110.674 161.977 110.865 161.949 111.08C161.922 111.291 161.908 111.516 161.908 111.754V111.906C161.908 112.148 161.922 112.379 161.949 112.598C161.977 112.812 162.027 113.002 162.102 113.166C162.18 113.33 162.289 113.459 162.43 113.553C162.57 113.646 162.756 113.693 162.986 113.693ZM168.371 106V115H166.543V106H168.371ZM168.131 111.607L167.674 111.619C167.674 111.174 167.729 110.766 167.838 110.395C167.951 110.02 168.111 109.693 168.318 109.416C168.525 109.139 168.773 108.924 169.062 108.771C169.355 108.619 169.678 108.543 170.029 108.543C170.342 108.543 170.627 108.588 170.885 108.678C171.143 108.768 171.365 108.91 171.553 109.105C171.74 109.301 171.885 109.557 171.986 109.873C172.088 110.189 172.139 110.574 172.139 111.027V115H170.299V111.016C170.299 110.746 170.26 110.535 170.182 110.383C170.107 110.23 169.998 110.123 169.854 110.061C169.713 109.998 169.541 109.967 169.338 109.967C169.1 109.967 168.902 110.01 168.746 110.096C168.59 110.178 168.467 110.293 168.377 110.441C168.287 110.59 168.223 110.764 168.184 110.963C168.148 111.162 168.131 111.377 168.131 111.607Z" fill="#666666"/>
<path d="M563.3 105.523V107H558.993V105.523H563.3ZM559.643 98.4688V107H557.733V98.4688H559.643ZM567.501 105.488V102.77C567.501 102.578 567.471 102.414 567.413 102.277C567.354 102.141 567.262 102.033 567.137 101.955C567.012 101.877 566.85 101.838 566.651 101.838C566.483 101.838 566.337 101.867 566.212 101.926C566.091 101.984 565.997 102.068 565.93 102.178C565.868 102.287 565.837 102.422 565.837 102.582H564.009C564.009 102.297 564.073 102.031 564.202 101.785C564.331 101.539 564.514 101.322 564.753 101.135C564.995 100.947 565.284 100.803 565.62 100.701C565.956 100.596 566.333 100.543 566.751 100.543C567.247 100.543 567.688 100.627 568.075 100.795C568.466 100.959 568.774 101.207 569.001 101.539C569.227 101.867 569.341 102.281 569.341 102.781V105.436C569.341 105.818 569.362 106.119 569.405 106.338C569.452 106.553 569.518 106.74 569.604 106.9V107H567.759C567.673 106.816 567.608 106.59 567.565 106.32C567.522 106.047 567.501 105.77 567.501 105.488ZM567.729 103.133L567.741 104.141H566.833C566.63 104.141 566.454 104.166 566.305 104.217C566.161 104.268 566.044 104.338 565.954 104.428C565.864 104.514 565.798 104.615 565.755 104.732C565.716 104.846 565.696 104.971 565.696 105.107C565.696 105.236 565.727 105.354 565.79 105.459C565.852 105.561 565.938 105.641 566.048 105.699C566.157 105.758 566.284 105.787 566.428 105.787C566.667 105.787 566.87 105.74 567.038 105.646C567.21 105.553 567.342 105.439 567.436 105.307C567.53 105.17 567.577 105.043 567.577 104.926L568.016 105.688C567.946 105.844 567.86 106.006 567.759 106.174C567.657 106.338 567.528 106.492 567.372 106.637C567.216 106.777 567.026 106.893 566.803 106.982C566.585 107.072 566.321 107.117 566.012 107.117C565.614 107.117 565.253 107.037 564.928 106.877C564.604 106.713 564.344 106.488 564.149 106.203C563.958 105.918 563.862 105.59 563.862 105.219C563.862 104.887 563.923 104.592 564.044 104.334C564.165 104.076 564.346 103.857 564.589 103.678C564.835 103.498 565.143 103.363 565.514 103.273C565.885 103.18 566.319 103.133 566.815 103.133H567.729ZM572.376 102.137V107H570.548V100.66H572.264L572.376 102.137ZM574.268 100.613L574.239 102.318C574.161 102.307 574.059 102.297 573.934 102.289C573.809 102.277 573.702 102.271 573.612 102.271C573.378 102.271 573.175 102.301 573.003 102.359C572.835 102.414 572.694 102.496 572.581 102.605C572.471 102.715 572.389 102.852 572.335 103.016C572.28 103.176 572.253 103.361 572.253 103.572L571.907 103.402C571.907 102.984 571.948 102.602 572.03 102.254C572.112 101.906 572.231 101.605 572.387 101.352C572.544 101.094 572.735 100.895 572.962 100.754C573.188 100.613 573.446 100.543 573.735 100.543C573.829 100.543 573.925 100.549 574.022 100.561C574.12 100.572 574.202 100.59 574.268 100.613ZM578.897 100.66H580.561V106.771C580.561 107.354 580.428 107.848 580.163 108.254C579.901 108.66 579.536 108.969 579.067 109.18C578.598 109.391 578.05 109.496 577.421 109.496C577.147 109.496 576.862 109.459 576.565 109.385C576.268 109.314 575.989 109.207 575.727 109.062C575.466 108.922 575.247 108.742 575.071 108.523L575.85 107.445C576.03 107.648 576.245 107.812 576.495 107.938C576.745 108.066 577.03 108.131 577.35 108.131C577.643 108.131 577.891 108.078 578.094 107.973C578.298 107.867 578.452 107.713 578.557 107.51C578.667 107.307 578.721 107.061 578.721 106.771V102.143L578.897 100.66ZM574.661 103.906V103.783C574.661 103.303 574.719 102.865 574.837 102.471C574.954 102.072 575.124 101.73 575.346 101.445C575.573 101.156 575.844 100.934 576.161 100.777C576.481 100.621 576.841 100.543 577.239 100.543C577.669 100.543 578.024 100.625 578.305 100.789C578.587 100.949 578.815 101.176 578.991 101.469C579.167 101.758 579.305 102.1 579.407 102.494C579.509 102.885 579.591 103.309 579.653 103.766V103.977C579.591 104.414 579.501 104.822 579.384 105.201C579.266 105.58 579.114 105.914 578.926 106.203C578.739 106.488 578.505 106.713 578.223 106.877C577.946 107.037 577.614 107.117 577.227 107.117C576.833 107.117 576.477 107.037 576.161 106.877C575.844 106.717 575.573 106.492 575.346 106.203C575.124 105.914 574.954 105.574 574.837 105.184C574.719 104.793 574.661 104.367 574.661 103.906ZM576.489 103.783V103.906C576.489 104.156 576.512 104.389 576.559 104.604C576.61 104.818 576.684 105.008 576.782 105.172C576.884 105.336 577.009 105.465 577.157 105.559C577.309 105.648 577.487 105.693 577.69 105.693C577.987 105.693 578.227 105.631 578.411 105.506C578.598 105.377 578.735 105.199 578.821 104.973C578.911 104.746 578.958 104.482 578.962 104.182V103.566C578.962 103.316 578.936 103.092 578.885 102.893C578.835 102.693 578.759 102.525 578.657 102.389C578.559 102.252 578.43 102.148 578.27 102.078C578.114 102.004 577.925 101.967 577.702 101.967C577.503 101.967 577.327 102.014 577.175 102.107C577.022 102.197 576.895 102.324 576.794 102.488C576.692 102.652 576.616 102.846 576.565 103.068C576.514 103.287 576.489 103.525 576.489 103.783ZM584.768 107.117C584.264 107.117 583.813 107.037 583.415 106.877C583.016 106.717 582.678 106.496 582.401 106.215C582.128 105.93 581.919 105.602 581.774 105.23C581.63 104.859 581.557 104.463 581.557 104.041V103.818C581.557 103.346 581.624 102.91 581.757 102.512C581.889 102.113 582.083 101.768 582.337 101.475C582.594 101.178 582.911 100.949 583.286 100.789C583.661 100.625 584.089 100.543 584.569 100.543C585.018 100.543 585.419 100.617 585.77 100.766C586.122 100.91 586.419 101.119 586.661 101.393C586.903 101.662 587.087 101.988 587.212 102.371C587.341 102.75 587.405 103.176 587.405 103.648V104.398H582.296V103.221H585.612V103.08C585.612 102.857 585.571 102.662 585.489 102.494C585.411 102.326 585.294 102.197 585.137 102.107C584.985 102.014 584.792 101.967 584.557 101.967C584.335 101.967 584.149 102.014 584.001 102.107C583.852 102.201 583.733 102.334 583.643 102.506C583.557 102.674 583.495 102.871 583.456 103.098C583.417 103.32 583.397 103.561 583.397 103.818V104.041C583.397 104.287 583.43 104.512 583.497 104.715C583.563 104.918 583.661 105.092 583.79 105.236C583.919 105.381 584.075 105.494 584.259 105.576C584.442 105.658 584.651 105.699 584.885 105.699C585.175 105.699 585.45 105.645 585.712 105.535C585.973 105.422 586.2 105.246 586.391 105.008L587.247 105.986C587.118 106.174 586.936 106.355 586.702 106.531C586.471 106.703 586.194 106.844 585.87 106.953C585.546 107.062 585.178 107.117 584.768 107.117ZM596.944 105.523V107H592.637V105.523H596.944ZM593.288 98.4688V107H591.378V98.4688H593.288ZM601.145 105.488V102.77C601.145 102.578 601.116 102.414 601.057 102.277C600.999 102.141 600.907 102.033 600.782 101.955C600.657 101.877 600.495 101.838 600.296 101.838C600.128 101.838 599.981 101.867 599.856 101.926C599.735 101.984 599.641 102.068 599.575 102.178C599.512 102.287 599.481 102.422 599.481 102.582H597.653C597.653 102.297 597.717 102.031 597.846 101.785C597.975 101.539 598.159 101.322 598.397 101.135C598.639 100.947 598.928 100.803 599.264 100.701C599.6 100.596 599.977 100.543 600.395 100.543C600.891 100.543 601.333 100.627 601.719 100.795C602.11 100.959 602.419 101.207 602.645 101.539C602.872 101.867 602.985 102.281 602.985 102.781V105.436C602.985 105.818 603.007 106.119 603.05 106.338C603.096 106.553 603.163 106.74 603.249 106.9V107H601.403C601.317 106.816 601.253 106.59 601.21 106.32C601.167 106.047 601.145 105.77 601.145 105.488ZM601.374 103.133L601.385 104.141H600.477C600.274 104.141 600.098 104.166 599.95 104.217C599.805 104.268 599.688 104.338 599.598 104.428C599.509 104.514 599.442 104.615 599.399 104.732C599.36 104.846 599.341 104.971 599.341 105.107C599.341 105.236 599.372 105.354 599.434 105.459C599.497 105.561 599.583 105.641 599.692 105.699C599.801 105.758 599.928 105.787 600.073 105.787C600.311 105.787 600.514 105.74 600.682 105.646C600.854 105.553 600.987 105.439 601.081 105.307C601.175 105.17 601.221 105.043 601.221 104.926L601.661 105.688C601.591 105.844 601.505 106.006 601.403 106.174C601.301 106.338 601.173 106.492 601.016 106.637C600.86 106.777 600.671 106.893 600.448 106.982C600.229 107.072 599.966 107.117 599.657 107.117C599.259 107.117 598.897 107.037 598.573 106.877C598.249 106.713 597.989 106.488 597.794 106.203C597.602 105.918 597.507 105.59 597.507 105.219C597.507 104.887 597.567 104.592 597.688 104.334C597.809 104.076 597.991 103.857 598.233 103.678C598.479 103.498 598.788 103.363 599.159 103.273C599.53 103.18 599.964 103.133 600.46 103.133H601.374ZM605.979 102.014V107H604.145V100.66H605.868L605.979 102.014ZM605.739 103.607L605.282 103.619C605.282 103.143 605.341 102.715 605.458 102.336C605.575 101.957 605.741 101.635 605.956 101.369C606.175 101.1 606.434 100.895 606.735 100.754C607.04 100.613 607.376 100.543 607.743 100.543C608.04 100.543 608.311 100.586 608.557 100.672C608.803 100.758 609.014 100.896 609.19 101.088C609.37 101.275 609.507 101.525 609.6 101.838C609.694 102.146 609.741 102.527 609.741 102.98V107H607.901V102.975C607.901 102.709 607.864 102.504 607.79 102.359C607.716 102.215 607.606 102.113 607.462 102.055C607.321 101.996 607.149 101.967 606.946 101.967C606.731 101.967 606.548 102.01 606.395 102.096C606.243 102.178 606.118 102.293 606.02 102.441C605.923 102.59 605.85 102.764 605.803 102.963C605.76 103.162 605.739 103.377 605.739 103.607ZM614.932 100.66H616.596V106.771C616.596 107.354 616.464 107.848 616.198 108.254C615.936 108.66 615.571 108.969 615.102 109.18C614.634 109.391 614.085 109.496 613.456 109.496C613.182 109.496 612.897 109.459 612.6 109.385C612.303 109.314 612.024 109.207 611.762 109.062C611.501 108.922 611.282 108.742 611.106 108.523L611.885 107.445C612.065 107.648 612.28 107.812 612.53 107.938C612.78 108.066 613.065 108.131 613.385 108.131C613.678 108.131 613.926 108.078 614.13 107.973C614.333 107.867 614.487 107.713 614.592 107.51C614.702 107.307 614.757 107.061 614.757 106.771V102.143L614.932 100.66ZM610.696 103.906V103.783C610.696 103.303 610.755 102.865 610.872 102.471C610.989 102.072 611.159 101.73 611.382 101.445C611.608 101.156 611.88 100.934 612.196 100.777C612.516 100.621 612.876 100.543 613.274 100.543C613.704 100.543 614.059 100.625 614.341 100.789C614.622 100.949 614.85 101.176 615.026 101.469C615.202 101.758 615.341 102.1 615.442 102.494C615.544 102.885 615.626 103.309 615.688 103.766V103.977C615.626 104.414 615.536 104.822 615.419 105.201C615.301 105.58 615.149 105.914 614.962 106.203C614.774 106.488 614.54 106.713 614.259 106.877C613.981 107.037 613.649 107.117 613.262 107.117C612.868 107.117 612.512 107.037 612.196 106.877C611.88 106.717 611.608 106.492 611.382 106.203C611.159 105.914 610.989 105.574 610.872 105.184C610.755 104.793 610.696 104.367 610.696 103.906ZM612.524 103.783V103.906C612.524 104.156 612.548 104.389 612.594 104.604C612.645 104.818 612.719 105.008 612.817 105.172C612.919 105.336 613.044 105.465 613.192 105.559C613.344 105.648 613.522 105.693 613.725 105.693C614.022 105.693 614.262 105.631 614.446 105.506C614.634 105.377 614.77 105.199 614.856 104.973C614.946 104.746 614.993 104.482 614.997 104.182V103.566C614.997 103.316 614.971 103.092 614.921 102.893C614.87 102.693 614.794 102.525 614.692 102.389C614.594 102.252 614.466 102.148 614.305 102.078C614.149 102.004 613.96 101.967 613.737 101.967C613.538 101.967 613.362 102.014 613.21 102.107C613.057 102.197 612.93 102.324 612.829 102.488C612.727 102.652 612.651 102.846 612.6 103.068C612.55 103.287 612.524 103.525 612.524 103.783ZM621.536 105.471V100.66H623.376V107H621.653L621.536 105.471ZM621.729 104.176L622.233 104.164C622.233 104.59 622.182 104.982 622.081 105.342C621.983 105.701 621.835 106.014 621.635 106.279C621.44 106.545 621.196 106.752 620.903 106.9C620.614 107.045 620.276 107.117 619.889 107.117C619.577 107.117 619.29 107.074 619.028 106.988C618.77 106.898 618.548 106.76 618.36 106.572C618.173 106.381 618.028 106.137 617.926 105.84C617.825 105.539 617.774 105.18 617.774 104.762V100.66H619.602V104.773C619.602 104.938 619.622 105.078 619.661 105.195C619.704 105.309 619.76 105.402 619.831 105.477C619.905 105.551 619.995 105.605 620.1 105.641C620.21 105.676 620.329 105.693 620.458 105.693C620.782 105.693 621.036 105.627 621.219 105.494C621.407 105.357 621.538 105.176 621.612 104.949C621.69 104.719 621.729 104.461 621.729 104.176ZM627.923 105.488V102.77C627.923 102.578 627.893 102.414 627.835 102.277C627.776 102.141 627.684 102.033 627.559 101.955C627.434 101.877 627.272 101.838 627.073 101.838C626.905 101.838 626.759 101.867 626.634 101.926C626.512 101.984 626.419 102.068 626.352 102.178C626.29 102.287 626.259 102.422 626.259 102.582H624.43C624.43 102.297 624.495 102.031 624.624 101.785C624.753 101.539 624.936 101.322 625.175 101.135C625.417 100.947 625.706 100.803 626.042 100.701C626.378 100.596 626.755 100.543 627.173 100.543C627.669 100.543 628.11 100.627 628.497 100.795C628.887 100.959 629.196 101.207 629.423 101.539C629.649 101.867 629.762 102.281 629.762 102.781V105.436C629.762 105.818 629.784 106.119 629.827 106.338C629.874 106.553 629.94 106.74 630.026 106.9V107H628.18C628.094 106.816 628.03 106.59 627.987 106.32C627.944 106.047 627.923 105.77 627.923 105.488ZM628.151 103.133L628.163 104.141H627.255C627.051 104.141 626.876 104.166 626.727 104.217C626.583 104.268 626.466 104.338 626.376 104.428C626.286 104.514 626.219 104.615 626.176 104.732C626.137 104.846 626.118 104.971 626.118 105.107C626.118 105.236 626.149 105.354 626.212 105.459C626.274 105.561 626.36 105.641 626.469 105.699C626.579 105.758 626.706 105.787 626.85 105.787C627.089 105.787 627.292 105.74 627.46 105.646C627.632 105.553 627.764 105.439 627.858 105.307C627.952 105.17 627.999 105.043 627.999 104.926L628.438 105.688C628.368 105.844 628.282 106.006 628.18 106.174C628.079 106.338 627.95 106.492 627.794 106.637C627.637 106.777 627.448 106.893 627.225 106.982C627.007 107.072 626.743 107.117 626.434 107.117C626.036 107.117 625.675 107.037 625.35 106.877C625.026 106.713 624.766 106.488 624.571 106.203C624.38 105.918 624.284 105.59 624.284 105.219C624.284 104.887 624.344 104.592 624.466 104.334C624.587 104.076 624.768 103.857 625.01 103.678C625.257 103.498 625.565 103.363 625.936 103.273C626.307 103.18 626.741 103.133 627.237 103.133H628.151ZM634.96 100.66H636.624V106.771C636.624 107.354 636.491 107.848 636.225 108.254C635.964 108.66 635.598 108.969 635.13 109.18C634.661 109.391 634.112 109.496 633.483 109.496C633.21 109.496 632.925 109.459 632.628 109.385C632.331 109.314 632.051 109.207 631.79 109.062C631.528 108.922 631.309 108.742 631.134 108.523L631.913 107.445C632.092 107.648 632.307 107.812 632.557 107.938C632.807 108.066 633.092 108.131 633.413 108.131C633.706 108.131 633.954 108.078 634.157 107.973C634.36 107.867 634.514 107.713 634.62 107.51C634.729 107.307 634.784 107.061 634.784 106.771V102.143L634.96 100.66ZM630.723 103.906V103.783C630.723 103.303 630.782 102.865 630.899 102.471C631.016 102.072 631.186 101.73 631.409 101.445C631.635 101.156 631.907 100.934 632.223 100.777C632.544 100.621 632.903 100.543 633.301 100.543C633.731 100.543 634.087 100.625 634.368 100.789C634.649 100.949 634.878 101.176 635.053 101.469C635.229 101.758 635.368 102.1 635.469 102.494C635.571 102.885 635.653 103.309 635.716 103.766V103.977C635.653 104.414 635.563 104.822 635.446 105.201C635.329 105.58 635.176 105.914 634.989 106.203C634.801 106.488 634.567 106.713 634.286 106.877C634.009 107.037 633.676 107.117 633.29 107.117C632.895 107.117 632.54 107.037 632.223 106.877C631.907 106.717 631.635 106.492 631.409 106.203C631.186 105.914 631.016 105.574 630.899 105.184C630.782 104.793 630.723 104.367 630.723 103.906ZM632.551 103.783V103.906C632.551 104.156 632.575 104.389 632.622 104.604C632.673 104.818 632.747 105.008 632.844 105.172C632.946 105.336 633.071 105.465 633.219 105.559C633.372 105.648 633.55 105.693 633.753 105.693C634.05 105.693 634.29 105.631 634.473 105.506C634.661 105.377 634.798 105.199 634.884 104.973C634.973 104.746 635.02 104.482 635.024 104.182V103.566C635.024 103.316 634.999 103.092 634.948 102.893C634.897 102.693 634.821 102.525 634.719 102.389C634.622 102.252 634.493 102.148 634.333 102.078C634.176 102.004 633.987 101.967 633.764 101.967C633.565 101.967 633.389 102.014 633.237 102.107C633.085 102.197 632.958 102.324 632.856 102.488C632.755 102.652 632.678 102.846 632.628 103.068C632.577 103.287 632.551 103.525 632.551 103.783ZM640.831 107.117C640.327 107.117 639.876 107.037 639.477 106.877C639.079 106.717 638.741 106.496 638.464 106.215C638.19 105.93 637.981 105.602 637.837 105.23C637.692 104.859 637.62 104.463 637.62 104.041V103.818C637.62 103.346 637.686 102.91 637.819 102.512C637.952 102.113 638.145 101.768 638.399 101.475C638.657 101.178 638.973 100.949 639.348 100.789C639.723 100.625 640.151 100.543 640.632 100.543C641.081 100.543 641.481 100.617 641.833 100.766C642.184 100.91 642.481 101.119 642.723 101.393C642.966 101.662 643.149 101.988 643.274 102.371C643.403 102.75 643.467 103.176 643.467 103.648V104.398H638.358V103.221H641.675V103.08C641.675 102.857 641.634 102.662 641.551 102.494C641.473 102.326 641.356 102.197 641.2 102.107C641.048 102.014 640.854 101.967 640.62 101.967C640.397 101.967 640.212 102.014 640.063 102.107C639.915 102.201 639.796 102.334 639.706 102.506C639.62 102.674 639.557 102.871 639.518 103.098C639.479 103.32 639.46 103.561 639.46 103.818V104.041C639.46 104.287 639.493 104.512 639.559 104.715C639.626 104.918 639.723 105.092 639.852 105.236C639.981 105.381 640.137 105.494 640.321 105.576C640.505 105.658 640.714 105.699 640.948 105.699C641.237 105.699 641.512 105.645 641.774 105.535C642.036 105.422 642.262 105.246 642.454 105.008L643.309 105.986C643.18 106.174 642.999 106.355 642.764 106.531C642.534 106.703 642.257 106.844 641.932 106.953C641.608 107.062 641.241 107.117 640.831 107.117Z" fill="#666666"/>
<path d="M558.617 113.469H560.199L562.25 119.568L564.295 113.469H565.877L562.889 122H561.605L558.617 113.469ZM557.703 113.469H559.314L559.613 119.791V122H557.703V113.469ZM565.18 113.469H566.797V122H564.881V119.791L565.18 113.469ZM567.857 118.895V118.771C567.857 118.307 567.924 117.879 568.057 117.488C568.189 117.094 568.385 116.752 568.643 116.463C568.9 116.174 569.217 115.949 569.592 115.789C569.967 115.625 570.396 115.543 570.881 115.543C571.373 115.543 571.807 115.625 572.182 115.789C572.561 115.949 572.879 116.174 573.137 116.463C573.395 116.752 573.59 117.094 573.723 117.488C573.855 117.879 573.922 118.307 573.922 118.771V118.895C573.922 119.355 573.855 119.783 573.723 120.178C573.59 120.568 573.395 120.91 573.137 121.203C572.879 121.492 572.562 121.717 572.188 121.877C571.812 122.037 571.381 122.117 570.893 122.117C570.408 122.117 569.977 122.037 569.598 121.877C569.219 121.717 568.9 121.492 568.643 121.203C568.385 120.91 568.189 120.568 568.057 120.178C567.924 119.783 567.857 119.355 567.857 118.895ZM569.691 118.771V118.895C569.691 119.145 569.711 119.379 569.75 119.598C569.793 119.816 569.861 120.008 569.955 120.172C570.049 120.336 570.172 120.465 570.324 120.559C570.48 120.648 570.67 120.693 570.893 120.693C571.115 120.693 571.303 120.648 571.455 120.559C571.607 120.465 571.73 120.336 571.824 120.172C571.918 120.008 571.984 119.816 572.023 119.598C572.066 119.379 572.088 119.145 572.088 118.895V118.771C572.088 118.525 572.066 118.295 572.023 118.08C571.984 117.861 571.918 117.668 571.824 117.5C571.73 117.332 571.605 117.201 571.449 117.107C571.297 117.014 571.107 116.967 570.881 116.967C570.662 116.967 570.477 117.014 570.324 117.107C570.172 117.201 570.049 117.332 569.955 117.5C569.861 117.668 569.793 117.861 569.75 118.08C569.711 118.295 569.691 118.525 569.691 118.771ZM578.574 120.582V113H580.414V122H578.762L578.574 120.582ZM574.625 118.906V118.783C574.625 118.303 574.678 117.865 574.783 117.471C574.893 117.072 575.051 116.73 575.258 116.445C575.469 116.156 575.729 115.934 576.037 115.777C576.346 115.621 576.699 115.543 577.098 115.543C577.465 115.543 577.785 115.625 578.059 115.789C578.332 115.949 578.564 116.176 578.756 116.469C578.951 116.758 579.109 117.1 579.23 117.494C579.352 117.885 579.443 118.309 579.506 118.766V118.977C579.447 119.414 579.355 119.822 579.23 120.201C579.109 120.58 578.951 120.914 578.756 121.203C578.564 121.488 578.33 121.713 578.053 121.877C577.779 122.037 577.457 122.117 577.086 122.117C576.688 122.117 576.334 122.037 576.025 121.877C575.721 121.717 575.465 121.492 575.258 121.203C575.051 120.914 574.893 120.574 574.783 120.184C574.678 119.793 574.625 119.367 574.625 118.906ZM576.453 118.783V118.906C576.453 119.156 576.471 119.389 576.506 119.604C576.545 119.818 576.607 120.008 576.693 120.172C576.779 120.336 576.893 120.465 577.033 120.559C577.174 120.648 577.346 120.693 577.549 120.693C577.822 120.693 578.047 120.631 578.223 120.506C578.398 120.377 578.531 120.199 578.621 119.973C578.711 119.746 578.758 119.482 578.762 119.182V118.566C578.762 118.316 578.736 118.092 578.686 117.893C578.635 117.693 578.559 117.525 578.457 117.389C578.359 117.252 578.236 117.148 578.088 117.078C577.939 117.004 577.764 116.967 577.561 116.967C577.361 116.967 577.191 117.014 577.051 117.107C576.91 117.197 576.795 117.324 576.705 117.488C576.619 117.652 576.555 117.846 576.512 118.068C576.473 118.287 576.453 118.525 576.453 118.783ZM584.621 122.117C584.117 122.117 583.666 122.037 583.268 121.877C582.869 121.717 582.531 121.496 582.254 121.215C581.98 120.93 581.771 120.602 581.627 120.23C581.482 119.859 581.41 119.463 581.41 119.041V118.818C581.41 118.346 581.477 117.91 581.609 117.512C581.742 117.113 581.936 116.768 582.189 116.475C582.447 116.178 582.764 115.949 583.139 115.789C583.514 115.625 583.941 115.543 584.422 115.543C584.871 115.543 585.271 115.617 585.623 115.766C585.975 115.91 586.271 116.119 586.514 116.393C586.756 116.662 586.939 116.988 587.064 117.371C587.193 117.75 587.258 118.176 587.258 118.648V119.398H582.148V118.221H585.465V118.08C585.465 117.857 585.424 117.662 585.342 117.494C585.264 117.326 585.146 117.197 584.99 117.107C584.838 117.014 584.645 116.967 584.41 116.967C584.188 116.967 584.002 117.014 583.854 117.107C583.705 117.201 583.586 117.334 583.496 117.506C583.41 117.674 583.348 117.871 583.309 118.098C583.27 118.32 583.25 118.561 583.25 118.818V119.041C583.25 119.287 583.283 119.512 583.35 119.715C583.416 119.918 583.514 120.092 583.643 120.236C583.771 120.381 583.928 120.494 584.111 120.576C584.295 120.658 584.504 120.699 584.738 120.699C585.027 120.699 585.303 120.645 585.564 120.535C585.826 120.422 586.053 120.246 586.244 120.008L587.1 120.986C586.971 121.174 586.789 121.355 586.555 121.531C586.324 121.703 586.047 121.844 585.723 121.953C585.398 122.062 585.031 122.117 584.621 122.117ZM590.076 113V122H588.242V113H590.076ZM594.77 120.236C594.77 120.119 594.732 120.016 594.658 119.926C594.588 119.836 594.459 119.754 594.271 119.68C594.088 119.605 593.828 119.531 593.492 119.457C593.176 119.391 592.881 119.305 592.607 119.199C592.334 119.09 592.096 118.959 591.893 118.807C591.689 118.65 591.531 118.467 591.418 118.256C591.305 118.041 591.248 117.797 591.248 117.523C591.248 117.258 591.305 117.006 591.418 116.768C591.535 116.529 591.703 116.318 591.922 116.135C592.145 115.951 592.414 115.807 592.73 115.701C593.051 115.596 593.414 115.543 593.82 115.543C594.379 115.543 594.861 115.631 595.268 115.807C595.674 115.979 595.986 116.221 596.205 116.533C596.424 116.842 596.533 117.195 596.533 117.594H594.705C594.705 117.43 594.674 117.287 594.611 117.166C594.549 117.045 594.453 116.951 594.324 116.885C594.195 116.814 594.025 116.779 593.814 116.779C593.65 116.779 593.506 116.809 593.381 116.867C593.26 116.922 593.164 116.998 593.094 117.096C593.027 117.193 592.994 117.307 592.994 117.436C592.994 117.525 593.014 117.607 593.053 117.682C593.096 117.752 593.16 117.818 593.246 117.881C593.336 117.939 593.451 117.992 593.592 118.039C593.736 118.086 593.912 118.131 594.119 118.174C594.561 118.256 594.963 118.371 595.326 118.52C595.693 118.668 595.986 118.873 596.205 119.135C596.428 119.396 596.539 119.742 596.539 120.172C596.539 120.453 596.475 120.711 596.346 120.945C596.221 121.18 596.039 121.385 595.801 121.561C595.562 121.736 595.277 121.873 594.945 121.971C594.613 122.068 594.238 122.117 593.82 122.117C593.223 122.117 592.717 122.01 592.303 121.795C591.889 121.58 591.576 121.311 591.365 120.986C591.158 120.658 591.055 120.322 591.055 119.979H592.771C592.779 120.189 592.832 120.361 592.93 120.494C593.031 120.627 593.162 120.725 593.322 120.787C593.482 120.846 593.662 120.875 593.861 120.875C594.061 120.875 594.227 120.848 594.359 120.793C594.492 120.738 594.594 120.664 594.664 120.57C594.734 120.473 594.77 120.361 594.77 120.236Z" fill="#666666"/>
<path d="M326.23 412.75C326.23 412.605 326.209 412.477 326.166 412.363C326.123 412.246 326.045 412.139 325.932 412.041C325.818 411.943 325.658 411.846 325.451 411.748C325.244 411.646 324.973 411.543 324.637 411.438C324.254 411.312 323.889 411.172 323.541 411.016C323.197 410.855 322.891 410.67 322.621 410.459C322.352 410.248 322.139 410.002 321.982 409.721C321.83 409.439 321.754 409.111 321.754 408.736C321.754 408.373 321.834 408.045 321.994 407.752C322.154 407.459 322.379 407.209 322.668 407.002C322.957 406.791 323.297 406.631 323.688 406.521C324.078 406.408 324.508 406.352 324.977 406.352C325.602 406.352 326.15 406.463 326.623 406.686C327.1 406.904 327.471 407.213 327.736 407.611C328.002 408.006 328.135 408.465 328.135 408.988H326.236C326.236 408.758 326.188 408.555 326.09 408.379C325.996 408.199 325.852 408.059 325.656 407.957C325.465 407.855 325.225 407.805 324.936 407.805C324.654 407.805 324.418 407.848 324.227 407.934C324.039 408.016 323.896 408.129 323.799 408.273C323.705 408.418 323.658 408.576 323.658 408.748C323.658 408.885 323.693 409.01 323.764 409.123C323.838 409.232 323.943 409.336 324.08 409.434C324.221 409.527 324.393 409.617 324.596 409.703C324.799 409.789 325.031 409.871 325.293 409.949C325.75 410.094 326.154 410.254 326.506 410.43C326.861 410.605 327.16 410.805 327.402 411.027C327.645 411.25 327.826 411.502 327.947 411.783C328.072 412.064 328.135 412.383 328.135 412.738C328.135 413.117 328.061 413.453 327.912 413.746C327.768 414.039 327.557 414.289 327.279 414.496C327.006 414.699 326.678 414.854 326.295 414.959C325.912 415.064 325.484 415.117 325.012 415.117C324.582 415.117 324.158 415.062 323.74 414.953C323.322 414.84 322.943 414.668 322.604 414.438C322.268 414.207 321.998 413.914 321.795 413.559C321.596 413.199 321.496 412.773 321.496 412.281H323.406C323.406 412.539 323.443 412.758 323.518 412.938C323.592 413.113 323.697 413.256 323.834 413.365C323.975 413.475 324.145 413.553 324.344 413.6C324.543 413.646 324.766 413.67 325.012 413.67C325.297 413.67 325.527 413.631 325.703 413.553C325.883 413.471 326.016 413.359 326.102 413.219C326.188 413.078 326.23 412.922 326.23 412.75ZM332.154 415.117C331.65 415.117 331.199 415.037 330.801 414.877C330.402 414.717 330.064 414.496 329.787 414.215C329.514 413.93 329.305 413.602 329.16 413.23C329.016 412.859 328.943 412.463 328.943 412.041V411.818C328.943 411.346 329.01 410.91 329.143 410.512C329.275 410.113 329.469 409.768 329.723 409.475C329.98 409.178 330.297 408.949 330.672 408.789C331.047 408.625 331.475 408.543 331.955 408.543C332.404 408.543 332.805 408.617 333.156 408.766C333.508 408.91 333.805 409.119 334.047 409.393C334.289 409.662 334.473 409.988 334.598 410.371C334.727 410.75 334.791 411.176 334.791 411.648V412.398H329.682V411.221H332.998V411.08C332.998 410.857 332.957 410.662 332.875 410.494C332.797 410.326 332.68 410.197 332.523 410.107C332.371 410.014 332.178 409.967 331.943 409.967C331.721 409.967 331.535 410.014 331.387 410.107C331.238 410.201 331.119 410.334 331.029 410.506C330.943 410.674 330.881 410.871 330.842 411.098C330.803 411.32 330.783 411.561 330.783 411.818V412.041C330.783 412.287 330.816 412.512 330.883 412.715C330.949 412.918 331.047 413.092 331.176 413.236C331.305 413.381 331.461 413.494 331.645 413.576C331.828 413.658 332.037 413.699 332.271 413.699C332.561 413.699 332.836 413.645 333.098 413.535C333.359 413.422 333.586 413.246 333.777 413.008L334.633 413.986C334.504 414.174 334.322 414.355 334.088 414.531C333.857 414.703 333.58 414.844 333.256 414.953C332.932 415.062 332.564 415.117 332.154 415.117ZM337.516 409.99V415H335.688V408.66H337.404L337.516 409.99ZM337.281 411.607L336.818 411.619C336.818 411.174 336.871 410.766 336.977 410.395C337.086 410.02 337.244 409.693 337.451 409.416C337.658 409.139 337.914 408.924 338.219 408.771C338.527 408.619 338.883 408.543 339.285 408.543C339.566 408.543 339.822 408.586 340.053 408.672C340.283 408.754 340.48 408.885 340.645 409.064C340.812 409.24 340.941 409.471 341.031 409.756C341.121 410.037 341.166 410.375 341.166 410.77V415H339.338V410.992C339.338 410.711 339.303 410.498 339.232 410.354C339.166 410.205 339.068 410.104 338.939 410.049C338.811 409.994 338.656 409.967 338.477 409.967C338.281 409.967 338.107 410.01 337.955 410.096C337.807 410.178 337.682 410.293 337.58 410.441C337.479 410.59 337.402 410.764 337.352 410.963C337.305 411.162 337.281 411.377 337.281 411.607ZM340.979 411.514L340.398 411.561C340.398 411.131 340.449 410.732 340.551 410.365C340.652 409.998 340.805 409.68 341.008 409.41C341.211 409.137 341.463 408.924 341.764 408.771C342.068 408.619 342.422 408.543 342.824 408.543C343.121 408.543 343.391 408.586 343.633 408.672C343.879 408.758 344.09 408.896 344.266 409.088C344.445 409.279 344.584 409.531 344.682 409.844C344.779 410.152 344.828 410.531 344.828 410.98V415H342.988V410.98C342.988 410.703 342.953 410.492 342.883 410.348C342.816 410.203 342.719 410.104 342.59 410.049C342.465 409.994 342.314 409.967 342.139 409.967C341.943 409.967 341.773 410.008 341.629 410.09C341.484 410.168 341.363 410.277 341.266 410.418C341.168 410.555 341.096 410.717 341.049 410.904C341.002 411.092 340.979 411.295 340.979 411.514ZM349.41 413.488V410.77C349.41 410.578 349.381 410.414 349.322 410.277C349.264 410.141 349.172 410.033 349.047 409.955C348.922 409.877 348.76 409.838 348.561 409.838C348.393 409.838 348.246 409.867 348.121 409.926C348 409.984 347.906 410.068 347.84 410.178C347.777 410.287 347.746 410.422 347.746 410.582H345.918C345.918 410.297 345.982 410.031 346.111 409.785C346.24 409.539 346.424 409.322 346.662 409.135C346.904 408.947 347.193 408.803 347.529 408.701C347.865 408.596 348.242 408.543 348.66 408.543C349.156 408.543 349.598 408.627 349.984 408.795C350.375 408.959 350.684 409.207 350.91 409.539C351.137 409.867 351.25 410.281 351.25 410.781V413.436C351.25 413.818 351.271 414.119 351.314 414.338C351.361 414.553 351.428 414.74 351.514 414.9V415H349.668C349.582 414.816 349.518 414.59 349.475 414.32C349.432 414.047 349.41 413.77 349.41 413.488ZM349.639 411.133L349.65 412.141H348.742C348.539 412.141 348.363 412.166 348.215 412.217C348.07 412.268 347.953 412.338 347.863 412.428C347.773 412.514 347.707 412.615 347.664 412.732C347.625 412.846 347.605 412.971 347.605 413.107C347.605 413.236 347.637 413.354 347.699 413.459C347.762 413.561 347.848 413.641 347.957 413.699C348.066 413.758 348.193 413.787 348.338 413.787C348.576 413.787 348.779 413.74 348.947 413.646C349.119 413.553 349.252 413.439 349.346 413.307C349.439 413.17 349.486 413.043 349.486 412.926L349.926 413.688C349.855 413.844 349.77 414.006 349.668 414.174C349.566 414.338 349.438 414.492 349.281 414.637C349.125 414.777 348.936 414.893 348.713 414.982C348.494 415.072 348.23 415.117 347.922 415.117C347.523 415.117 347.162 415.037 346.838 414.877C346.514 414.713 346.254 414.488 346.059 414.203C345.867 413.918 345.771 413.59 345.771 413.219C345.771 412.887 345.832 412.592 345.953 412.334C346.074 412.076 346.256 411.857 346.498 411.678C346.744 411.498 347.053 411.363 347.424 411.273C347.795 411.18 348.229 411.133 348.725 411.133H349.639ZM354.244 410.014V415H352.41V408.66H354.133L354.244 410.014ZM354.004 411.607L353.547 411.619C353.547 411.143 353.605 410.715 353.723 410.336C353.84 409.957 354.006 409.635 354.221 409.369C354.439 409.1 354.699 408.895 355 408.754C355.305 408.613 355.641 408.543 356.008 408.543C356.305 408.543 356.576 408.586 356.822 408.672C357.068 408.758 357.279 408.896 357.455 409.088C357.635 409.275 357.771 409.525 357.865 409.838C357.959 410.146 358.006 410.527 358.006 410.98V415H356.166V410.975C356.166 410.709 356.129 410.504 356.055 410.359C355.98 410.215 355.871 410.113 355.727 410.055C355.586 409.996 355.414 409.967 355.211 409.967C354.996 409.967 354.812 410.01 354.66 410.096C354.508 410.178 354.383 410.293 354.285 410.441C354.188 410.59 354.115 410.764 354.068 410.963C354.025 411.162 354.004 411.377 354.004 411.607ZM362.424 408.66V409.943H358.662V408.66H362.424ZM359.523 407.09H361.357V413.014C361.357 413.189 361.379 413.324 361.422 413.418C361.465 413.512 361.535 413.578 361.633 413.617C361.73 413.652 361.855 413.67 362.008 413.67C362.117 413.67 362.211 413.666 362.289 413.658C362.367 413.65 362.439 413.641 362.506 413.629V414.953C362.35 415.004 362.184 415.043 362.008 415.07C361.832 415.102 361.641 415.117 361.434 415.117C361.039 415.117 360.697 415.053 360.408 414.924C360.123 414.795 359.904 414.592 359.752 414.314C359.6 414.033 359.523 413.668 359.523 413.219V407.09ZM365.23 408.66V415H363.396V408.66H365.23ZM363.285 407.02C363.285 406.754 363.379 406.537 363.566 406.369C363.754 406.197 364 406.111 364.305 406.111C364.609 406.111 364.855 406.197 365.043 406.369C365.234 406.537 365.33 406.754 365.33 407.02C365.33 407.281 365.234 407.498 365.043 407.67C364.855 407.838 364.609 407.922 364.305 407.922C364 407.922 363.754 407.838 363.566 407.67C363.379 407.498 363.285 407.281 363.285 407.02ZM369.197 413.693C369.393 413.693 369.562 413.656 369.707 413.582C369.852 413.508 369.963 413.404 370.041 413.271C370.123 413.135 370.164 412.971 370.164 412.779H371.887C371.887 413.24 371.768 413.646 371.529 413.998C371.295 414.35 370.979 414.625 370.58 414.824C370.182 415.02 369.732 415.117 369.232 415.117C368.74 415.117 368.311 415.037 367.943 414.877C367.576 414.713 367.27 414.484 367.023 414.191C366.777 413.898 366.592 413.559 366.467 413.172C366.346 412.781 366.285 412.359 366.285 411.906V411.754C366.285 411.305 366.346 410.885 366.467 410.494C366.592 410.104 366.777 409.762 367.023 409.469C367.27 409.176 367.574 408.949 367.938 408.789C368.305 408.625 368.734 408.543 369.227 408.543C369.746 408.543 370.205 408.643 370.604 408.842C371.006 409.041 371.32 409.328 371.547 409.703C371.773 410.074 371.887 410.521 371.887 411.045H370.164C370.164 410.842 370.127 410.66 370.053 410.5C369.982 410.336 369.873 410.207 369.725 410.113C369.58 410.016 369.4 409.967 369.186 409.967C368.963 409.967 368.779 410.016 368.635 410.113C368.494 410.207 368.387 410.338 368.312 410.506C368.238 410.674 368.188 410.865 368.16 411.08C368.133 411.291 368.119 411.516 368.119 411.754V411.906C368.119 412.148 368.133 412.379 368.16 412.598C368.188 412.812 368.238 413.002 368.312 413.166C368.391 413.33 368.5 413.459 368.641 413.553C368.781 413.646 368.967 413.693 369.197 413.693ZM380.301 412.75C380.301 412.605 380.279 412.477 380.236 412.363C380.193 412.246 380.115 412.139 380.002 412.041C379.889 411.943 379.729 411.846 379.521 411.748C379.314 411.646 379.043 411.543 378.707 411.438C378.324 411.312 377.959 411.172 377.611 411.016C377.268 410.855 376.961 410.67 376.691 410.459C376.422 410.248 376.209 410.002 376.053 409.721C375.9 409.439 375.824 409.111 375.824 408.736C375.824 408.373 375.904 408.045 376.064 407.752C376.225 407.459 376.449 407.209 376.738 407.002C377.027 406.791 377.367 406.631 377.758 406.521C378.148 406.408 378.578 406.352 379.047 406.352C379.672 406.352 380.221 406.463 380.693 406.686C381.17 406.904 381.541 407.213 381.807 407.611C382.072 408.006 382.205 408.465 382.205 408.988H380.307C380.307 408.758 380.258 408.555 380.16 408.379C380.066 408.199 379.922 408.059 379.727 407.957C379.535 407.855 379.295 407.805 379.006 407.805C378.725 407.805 378.488 407.848 378.297 407.934C378.109 408.016 377.967 408.129 377.869 408.273C377.775 408.418 377.729 408.576 377.729 408.748C377.729 408.885 377.764 409.01 377.834 409.123C377.908 409.232 378.014 409.336 378.15 409.434C378.291 409.527 378.463 409.617 378.666 409.703C378.869 409.789 379.102 409.871 379.363 409.949C379.82 410.094 380.225 410.254 380.576 410.43C380.932 410.605 381.23 410.805 381.473 411.027C381.715 411.25 381.896 411.502 382.018 411.783C382.143 412.064 382.205 412.383 382.205 412.738C382.205 413.117 382.131 413.453 381.982 413.746C381.838 414.039 381.627 414.289 381.35 414.496C381.076 414.699 380.748 414.854 380.365 414.959C379.982 415.064 379.555 415.117 379.082 415.117C378.652 415.117 378.229 415.062 377.811 414.953C377.393 414.84 377.014 414.668 376.674 414.438C376.338 414.207 376.068 413.914 375.865 413.559C375.666 413.199 375.566 412.773 375.566 412.281H377.477C377.477 412.539 377.514 412.758 377.588 412.938C377.662 413.113 377.768 413.256 377.904 413.365C378.045 413.475 378.215 413.553 378.414 413.6C378.613 413.646 378.836 413.67 379.082 413.67C379.367 413.67 379.598 413.631 379.773 413.553C379.953 413.471 380.086 413.359 380.172 413.219C380.258 413.078 380.301 412.922 380.301 412.75ZM386.225 415.117C385.721 415.117 385.27 415.037 384.871 414.877C384.473 414.717 384.135 414.496 383.857 414.215C383.584 413.93 383.375 413.602 383.23 413.23C383.086 412.859 383.014 412.463 383.014 412.041V411.818C383.014 411.346 383.08 410.91 383.213 410.512C383.346 410.113 383.539 409.768 383.793 409.475C384.051 409.178 384.367 408.949 384.742 408.789C385.117 408.625 385.545 408.543 386.025 408.543C386.475 408.543 386.875 408.617 387.227 408.766C387.578 408.91 387.875 409.119 388.117 409.393C388.359 409.662 388.543 409.988 388.668 410.371C388.797 410.75 388.861 411.176 388.861 411.648V412.398H383.752V411.221H387.068V411.08C387.068 410.857 387.027 410.662 386.945 410.494C386.867 410.326 386.75 410.197 386.594 410.107C386.441 410.014 386.248 409.967 386.014 409.967C385.791 409.967 385.605 410.014 385.457 410.107C385.309 410.201 385.189 410.334 385.1 410.506C385.014 410.674 384.951 410.871 384.912 411.098C384.873 411.32 384.854 411.561 384.854 411.818V412.041C384.854 412.287 384.887 412.512 384.953 412.715C385.02 412.918 385.117 413.092 385.246 413.236C385.375 413.381 385.531 413.494 385.715 413.576C385.898 413.658 386.107 413.699 386.342 413.699C386.631 413.699 386.906 413.645 387.168 413.535C387.43 413.422 387.656 413.246 387.848 413.008L388.703 413.986C388.574 414.174 388.393 414.355 388.158 414.531C387.928 414.703 387.65 414.844 387.326 414.953C387.002 415.062 386.635 415.117 386.225 415.117ZM393.109 413.488V410.77C393.109 410.578 393.08 410.414 393.021 410.277C392.963 410.141 392.871 410.033 392.746 409.955C392.621 409.877 392.459 409.838 392.26 409.838C392.092 409.838 391.945 409.867 391.82 409.926C391.699 409.984 391.605 410.068 391.539 410.178C391.477 410.287 391.445 410.422 391.445 410.582H389.617C389.617 410.297 389.682 410.031 389.811 409.785C389.939 409.539 390.123 409.322 390.361 409.135C390.604 408.947 390.893 408.803 391.229 408.701C391.564 408.596 391.941 408.543 392.359 408.543C392.855 408.543 393.297 408.627 393.684 408.795C394.074 408.959 394.383 409.207 394.609 409.539C394.836 409.867 394.949 410.281 394.949 410.781V413.436C394.949 413.818 394.971 414.119 395.014 414.338C395.061 414.553 395.127 414.74 395.213 414.9V415H393.367C393.281 414.816 393.217 414.59 393.174 414.32C393.131 414.047 393.109 413.77 393.109 413.488ZM393.338 411.133L393.35 412.141H392.441C392.238 412.141 392.062 412.166 391.914 412.217C391.77 412.268 391.652 412.338 391.562 412.428C391.473 412.514 391.406 412.615 391.363 412.732C391.324 412.846 391.305 412.971 391.305 413.107C391.305 413.236 391.336 413.354 391.398 413.459C391.461 413.561 391.547 413.641 391.656 413.699C391.766 413.758 391.893 413.787 392.037 413.787C392.275 413.787 392.479 413.74 392.646 413.646C392.818 413.553 392.951 413.439 393.045 413.307C393.139 413.17 393.186 413.043 393.186 412.926L393.625 413.688C393.555 413.844 393.469 414.006 393.367 414.174C393.266 414.338 393.137 414.492 392.98 414.637C392.824 414.777 392.635 414.893 392.412 414.982C392.193 415.072 391.93 415.117 391.621 415.117C391.223 415.117 390.861 415.037 390.537 414.877C390.213 414.713 389.953 414.488 389.758 414.203C389.566 413.918 389.471 413.59 389.471 413.219C389.471 412.887 389.531 412.592 389.652 412.334C389.773 412.076 389.955 411.857 390.197 411.678C390.443 411.498 390.752 411.363 391.123 411.273C391.494 411.18 391.928 411.133 392.424 411.133H393.338ZM397.984 410.137V415H396.156V408.66H397.873L397.984 410.137ZM399.877 408.613L399.848 410.318C399.77 410.307 399.668 410.297 399.543 410.289C399.418 410.277 399.311 410.271 399.221 410.271C398.986 410.271 398.783 410.301 398.611 410.359C398.443 410.414 398.303 410.496 398.189 410.605C398.08 410.715 397.998 410.852 397.943 411.016C397.889 411.176 397.861 411.361 397.861 411.572L397.516 411.402C397.516 410.984 397.557 410.602 397.639 410.254C397.721 409.906 397.84 409.605 397.996 409.352C398.152 409.094 398.344 408.895 398.57 408.754C398.797 408.613 399.055 408.543 399.344 408.543C399.438 408.543 399.533 408.549 399.631 408.561C399.729 408.572 399.811 408.59 399.877 408.613ZM403.158 413.693C403.354 413.693 403.523 413.656 403.668 413.582C403.812 413.508 403.924 413.404 404.002 413.271C404.084 413.135 404.125 412.971 404.125 412.779H405.848C405.848 413.24 405.729 413.646 405.49 413.998C405.256 414.35 404.939 414.625 404.541 414.824C404.143 415.02 403.693 415.117 403.193 415.117C402.701 415.117 402.271 415.037 401.904 414.877C401.537 414.713 401.23 414.484 400.984 414.191C400.738 413.898 400.553 413.559 400.428 413.172C400.307 412.781 400.246 412.359 400.246 411.906V411.754C400.246 411.305 400.307 410.885 400.428 410.494C400.553 410.104 400.738 409.762 400.984 409.469C401.23 409.176 401.535 408.949 401.898 408.789C402.266 408.625 402.695 408.543 403.188 408.543C403.707 408.543 404.166 408.643 404.564 408.842C404.967 409.041 405.281 409.328 405.508 409.703C405.734 410.074 405.848 410.521 405.848 411.045H404.125C404.125 410.842 404.088 410.66 404.014 410.5C403.943 410.336 403.834 410.207 403.686 410.113C403.541 410.016 403.361 409.967 403.146 409.967C402.924 409.967 402.74 410.016 402.596 410.113C402.455 410.207 402.348 410.338 402.273 410.506C402.199 410.674 402.148 410.865 402.121 411.08C402.094 411.291 402.08 411.516 402.08 411.754V411.906C402.08 412.148 402.094 412.379 402.121 412.598C402.148 412.812 402.199 413.002 402.273 413.166C402.352 413.33 402.461 413.459 402.602 413.553C402.742 413.646 402.928 413.693 403.158 413.693ZM408.543 406V415H406.715V406H408.543ZM408.303 411.607L407.846 411.619C407.846 411.174 407.9 410.766 408.01 410.395C408.123 410.02 408.283 409.693 408.49 409.416C408.697 409.139 408.945 408.924 409.234 408.771C409.527 408.619 409.85 408.543 410.201 408.543C410.514 408.543 410.799 408.588 411.057 408.678C411.314 408.768 411.537 408.91 411.725 409.105C411.912 409.301 412.057 409.557 412.158 409.873C412.26 410.189 412.311 410.574 412.311 411.027V415H410.471V411.016C410.471 410.746 410.432 410.535 410.354 410.383C410.279 410.23 410.17 410.123 410.025 410.061C409.885 409.998 409.713 409.967 409.51 409.967C409.271 409.967 409.074 410.01 408.918 410.096C408.762 410.178 408.639 410.293 408.549 410.441C408.459 410.59 408.395 410.764 408.355 410.963C408.32 411.162 408.303 411.377 408.303 411.607Z" fill="#666666"/>
<path fill-rule="evenodd" clip-rule="evenodd" d="M182.03 108C182.03 127.882 198.148 144 218.03 144C237.912 144 254.03 127.882 254.03 108C254.03 88.1177 237.912 72 218.03 72C198.148 72 182.03 88.1177 182.03 108Z" stroke="#888888" stroke-width="2" stroke-linecap="round" stroke-linejoin="round"/>
<path fill-rule="evenodd" clip-rule="evenodd" d="M327.03 360C327.03 379.882 343.148 396 363.03 396C382.912 396 399.03 379.882 399.03 360C399.03 340.118 382.912 324 363.03 324C343.148 324 327.03 340.118 327.03 360Z" stroke="#888888" stroke-width="2" stroke-linecap="round" stroke-linejoin="round"/>
<path fill-rule="evenodd" clip-rule="evenodd" d="M472.03 108C472.03 127.882 488.148 144 508.03 144C527.912 144 544.03 127.882 544.03 108C544.03 88.1177 527.912 72 508.03 72C488.148 72 472.03 88.1177 472.03 108Z" stroke="#795EE3" stroke-width="2" stroke-linecap="round" stroke-linejoin="round"/>
<path fill-rule="evenodd" clip-rule="evenodd" d="M435.03 191.996C435.03 152.232 402.795 119.996 363.03 119.996C323.266 119.996 291.03 152.232 291.03 191.996C291.03 231.761 323.266 263.996 363.03 263.996C402.794 263.996 435.03 231.761 435.03 191.996Z" stroke="#888888" stroke-width="2" stroke-linecap="round" stroke-linejoin="round"/>
<path fill-rule="evenodd" clip-rule="evenodd" d="M428.075 161.088C432.534 170.454 435.03 180.936 435.03 192C435.03 229.817 405.874 260.825 368.814 263.771V290.035H375.919L363.027 304L350.134 290.035H357.311V263.776C320.22 260.861 291.03 229.839 291.03 192C291.03 180.905 293.54 170.396 298.022 161.01L275.269 147.873L271.717 154.026L266.069 135.878L284.609 131.696L281.021 137.911L303.795 151.059C316.79 132.292 338.475 120 363.03 120C387.616 120 409.325 132.324 422.314 151.131L445.158 137.942L441.605 131.789L460.146 135.972L454.498 154.119L450.909 147.905L428.075 161.088Z" stroke="#888888" stroke-width="2" stroke-linecap="round" stroke-linejoin="round"/>
<path d="M226.03 85.16V93C226.03 94.1046 226.925 95 228.03 95H235.87M210.03 109H206.63C205.477 108.991 204.456 109.743 204.122 110.846C203.787 111.95 204.22 113.142 205.184 113.774L208.864 116.226C209.826 116.857 210.259 118.046 209.928 119.148C209.597 120.25 208.581 121.004 207.43 121H204.03M220.03 109V112C220.03 115.246 218.977 118.404 217.03 121C215.083 118.404 214.03 115.246 214.03 112L214.03 109M230.03 113V112C230.03 110.343 228.687 109 227.03 109C225.373 109 224.03 110.343 224.03 112V118C224.03 119.657 225.373 121 227.03 121C228.687 121 230.03 119.657 230.03 118V117H228.03M234.03 131C235.135 131 236.03 130.105 236.03 129V96.95C236.03 90.3502 230.68 85 224.08 85H200.03C198.925 85 198.03 85.8954 198.03 87V129C198.03 130.105 198.925 131 200.03 131H234.03Z" stroke="#666666" stroke-width="2" stroke-linecap="round" stroke-linejoin="round"/>
<path d="M496.93 124.722C499.05 124.369 500.841 122.951 501.67 120.968M496.93 124.722C492.789 124.357 489.624 120.869 489.662 116.712C489.663 116.106 489.73 115.503 489.862 114.912C487.473 113.428 486.021 110.816 486.021 108.004C486.021 105.192 487.473 102.58 489.862 101.096C489.73 100.505 489.663 99.9015 489.662 99.296C489.62 95.1357 492.786 91.6433 496.93 91.278C496.889 89.6404 497.505 88.0545 498.642 86.8748C499.778 85.695 501.34 85.0198 502.978 85C505.568 85.1483 507.879 86.6755 509.03 89M496.93 124.722C496.889 126.36 497.505 127.945 498.642 129.125C499.778 130.305 501.34 130.98 502.978 131C505.366 131.058 507.63 129.936 509.03 128M489.872 101.092C493.963 101.809 497.478 104.411 499.36 108.114M496.596 104.458L500.182 101.768M505.03 85.346C504.992 87.3509 504.63 89.3365 503.958 91.226M520.03 105C520.03 106.105 520.925 107 522.03 107C523.135 107 524.03 106.105 524.03 105C524.03 103.895 523.135 103 522.03 103C520.925 103 520.03 103.895 520.03 105ZM520.03 105C517.555 105.593 515.623 107.525 515.03 110M515.03 110C516.135 110 517.03 110.895 517.03 112C517.03 113.105 516.135 114 515.03 114C513.925 114 513.03 113.105 513.03 112C513.03 110.895 513.925 110 515.03 110ZM509.03 89C510.181 86.6755 512.492 85.1483 515.082 85C516.72 85.0198 518.282 85.695 519.418 86.8748C520.555 88.0545 521.171 89.6404 521.13 91.278C525.273 91.6432 528.438 95.1333 528.398 99.292C528.394 99.8979 528.324 100.501 528.188 101.092C530.583 102.57 532.038 105.186 532.03 108C532.037 110.813 530.582 113.427 528.188 114.904C528.324 115.495 528.394 116.098 528.398 116.704C528.44 120.864 525.274 124.357 521.13 124.722M509.03 89V112M509.03 128C510.43 129.936 512.694 131.058 515.082 131C516.72 130.98 518.282 130.305 519.418 129.125C520.555 127.945 521.171 126.36 521.13 124.722M509.03 128V119.916M521.13 124.722C520.578 122.8 519.636 121.322 518.03 121M527.376 95.326L521.83 98.102C520.21 98.9132 518.306 98.9323 516.67 98.154M518.03 121C518.03 122.105 517.135 123 516.03 123C514.925 123 514.03 122.105 514.03 121C514.03 119.895 514.925 119 516.03 119C517.135 119 518.03 119.895 518.03 121ZM501.03 93C501.03 94.1046 501.925 95 503.03 95C504.135 95 505.03 94.1046 505.03 93C505.03 91.8954 504.135 91 503.03 91C501.925 91 501.03 91.8954 501.03 93ZM513.03 97C513.03 98.1046 513.925 99 515.03 99C516.135 99 517.03 98.1046 517.03 97C517.03 95.8954 516.135 95 515.03 95C513.925 95 513.03 95.8954 513.03 97ZM500.03 101C500.03 102.105 500.925 103 502.03 103C503.135 103 504.03 102.105 504.03 101C504.03 99.8954 503.135 99 502.03 99C500.925 99 500.03 99.8954 500.03 101ZM498.03 110C498.03 111.105 498.925 112 500.03 112C501.135 112 502.03 111.105 502.03 110C502.03 108.895 501.135 108 500.03 108C498.925 108 498.03 108.895 498.03 110ZM500.03 119C500.03 120.105 500.925 121 502.03 121C503.135 121 504.03 120.105 504.03 119C504.03 117.895 503.135 117 502.03 117C500.925 117 500.03 117.895 500.03 119Z" stroke="#886AFF" stroke-width="2" stroke-linecap="round" stroke-linejoin="round"/>
<path d="M357.03 193.571C341.292 193.571 328.53 188.189 328.53 181.571M352.53 206.921C338.931 206.021 328.53 201.047 328.53 195.074M354.03 220.472C339.702 219.839 328.53 214.772 328.53 208.571V169.496M385.53 169.499V182.999M379.53 199.499V217.499M379.53 217.499L372.78 210.749M379.53 217.499L386.28 210.749M385.53 169.571C385.53 176.189 372.768 181.571 357.03 181.571C341.292 181.571 328.53 176.189 328.53 169.571C328.53 162.953 341.292 157.496 357.03 157.496C372.768 157.496 385.53 162.941 385.53 169.571ZM361.53 208.499C361.53 218.44 369.589 226.499 379.53 226.499C389.471 226.499 397.53 218.44 397.53 208.499C397.53 198.558 389.471 190.499 379.53 190.499C369.589 190.499 361.53 198.558 361.53 208.499Z" stroke="#666666" stroke-width="2" stroke-linecap="round" stroke-linejoin="round"/>
<path d="M385.316 382.286L372.459 369.429M340.744 356.297C340.742 366.562 349.063 374.884 359.327 374.884C369.592 374.884 377.912 366.562 377.91 356.297C377.912 346.033 369.592 337.711 359.327 337.711C349.063 337.711 340.742 346.033 340.744 356.297Z" stroke="#666666" stroke-width="2" stroke-linecap="round" stroke-linejoin="round"/>
</g>
</svg>
